<svg xmlns="http://www.w3.org/2000/svg" xmlns:xlink="http://www.w3.org/1999/xlink" viewBox="-304 -915.677 134.583 136.05"><defs><style>.a{fill:#fdd835;}.b{opacity:0.85;}.c{opacity:0.93;}.d{fill:#030000;}.e{filter:url(#c);}.f{filter:url(#a);}</style><filter id="a" x="-304" y="-915.677" width="134.583" height="134.527" filterUnits="userSpaceOnUse"><feOffset dy="3" input="SourceAlpha"/><feGaussianBlur stdDeviation="3" result="b"/><feFlood flood-opacity="0.424"/><feComposite operator="in" in2="b"/><feComposite in="SourceGraphic"/></filter><filter id="c" x="-299.578" y="-904.809" width="125.684" height="125.181" filterUnits="userSpaceOnUse"><feOffset dy="9" input="SourceAlpha"/><feGaussianBlur stdDeviation="3" result="d"/><feFlood flood-opacity="0.161"/><feComposite operator="in" in2="d"/><feComposite in="SourceGraphic"/></filter></defs><g transform="translate(-295.475 -910.152)"><g class="f" transform="matrix(1, 0, 0, 1, 295.48, 910.15)"><path class="a" d="M115.593,55.223,89.2,28.833,62.309,1.94a5.018,5.018,0,0,0-7.086,0L1.94,55.223a5.018,5.018,0,0,0,0,7.086L15.832,76.146l39.391,39.391a5.018,5.018,0,0,0,7.086,0l53.284-53.284A4.95,4.95,0,0,0,115.593,55.223Z" transform="translate(-295.48 -910.15)"/></g><g class="b" transform="translate(4.897 5.343)"><g class="e" transform="matrix(1, 0, 0, 1, 290.58, 904.81)"><path d="M62.242,116.381a5.9,5.9,0,0,1-4.3-1.785h0L10.185,67.115a5.992,5.992,0,0,1-1.785-4.3,5.9,5.9,0,0,1,1.785-4.3l47.76-47.537a5.992,5.992,0,0,1,4.3-1.785,5.9,5.9,0,0,1,4.3,1.785L114.3,58.522a5.992,5.992,0,0,1,1.785,4.3,5.9,5.9,0,0,1-1.785,4.3l-47.76,47.537A5.981,5.981,0,0,1,62.242,116.381Zm0-105.452a4.169,4.169,0,0,0-3.069,1.283L11.413,59.75a4.311,4.311,0,0,0,0,6.137l47.76,47.537a4.261,4.261,0,0,0,3.069,1.283,4.169,4.169,0,0,0,3.069-1.283l47.76-47.537a4.311,4.311,0,0,0,0-6.137L65.311,12.213A4.169,4.169,0,0,0,62.242,10.93Z" transform="translate(-298.98 -914.01)"/></g></g><g class="c" transform="translate(30.039 37.416)"><path class="d" d="M105.622,98.345a11.545,11.545,0,0,1-5.96-.291,25.209,25.209,0,0,1-5.2-2.326c-1.192-.872-2.432-1.687-3.623-2.559a.219.219,0,0,0-.048-.116,43.552,43.552,0,0,1-4.625-4.362c-.143-.174-.286-.465-.572-.349a.708.708,0,0,0-.238-.523,20.036,20.036,0,0,1-1.669-1.977c-1.24-1.628-2.479-3.141-3.719-4.769a6.5,6.5,0,0,0-3-2.385,11.745,11.745,0,0,0-4.482-.523c-2.384.058-4.815.407-7.2.349A5.538,5.538,0,0,1,60.71,75.9c-.572-.872-1.1-1.745-1.669-2.617a1.918,1.918,0,0,0-.191-.465c-.572-1.105-1.192-2.152-1.764-3.2-.143-.291-.238-.64.048-.64a20.555,20.555,0,0,0,2.479-.814c1.287-.349,1.859-1.8,2.622-3.141-.954,0-1.812-.058-2.622,0-.477,0-.572-.174-.429-.756a1.918,1.918,0,0,0,.1-1.163,9.032,9.032,0,0,0-3.48,3.49,1.436,1.436,0,0,1-1.335.872,3.7,3.7,0,0,0-2.956,1.163c-.572.582-1.144,1.105-1.669,1.628a2.883,2.883,0,0,1-1.287.814c-1.335.291-2.718.64-4.053.989v.465c.381.64.429,1.512.858,2.094.334,1.338.62,1.57,1.573,1.454,2.384-.291,4.815-.116,7.247-.174.286,0,.429.174.572.465.715,1.861,1.43,3.722,2.193,5.525.715,1.687,1.192,3.548,2.908,4.013a2.35,2.35,0,0,1,1.859,2.443v.116c0,.116.048.233.048.291.143.814.238,1.629.381,2.443.1.465.1,1.047.381,1.338A4.37,4.37,0,0,0,63.9,93.634c1.383,1.221,2.813,2.268,4.434.872.429-.349.667-.116,1,.291a10.309,10.309,0,0,0,2.527,2.734c.048,0,.1.058.143.058.048.058.048.058.1.058,0,.116.048.174.143.116.048.058.1.058.143.116s.143.116.191.174c.1.058.238.116.334.174.048.058.048.058.1.058h0a1.64,1.64,0,0,0,.763.407,1.091,1.091,0,0,0,.572.174l.048.058.048-.058h.1a1.491,1.491,0,0,0,.858.233,3.492,3.492,0,0,1,2.813,1.4c.286.349.667.64.954.931,2.145,1.977,4.434,3.315,7.1,3.2a3.46,3.46,0,0,1,2.336.582,25.188,25.188,0,0,1,2.67,1.512H92.7c.238-.407.715-.465,1-.989a17.2,17.2,0,0,1-3.48-.814,9.747,9.747,0,0,1-4.2-3.024c-.429-.523-.667-.582-1.049-.058s-.715.465-1.192.058a12.835,12.835,0,0,1-3.194-3.722c-.048-.058-.1-.174-.143-.233,0-.291-.048-.523-.048-.814a28.618,28.618,0,0,0-.381-3.548,2.679,2.679,0,0,0,0-.872c-.048-.582.048-.64.429-.407,1.049.523,2.05,1.047,3.1,1.57l3.576,1.745c1.335.64,2.67,1.338,4.053,1.861l.429.174c.048.058.048.058.1.058h0c.143.233.286.116.477.233.048,0,.048,0,.1.058.1.058.143.058.238.116a1.183,1.183,0,0,0,.429.116c.048,0,.048.058.1.058h0c.1.116.191.174.286.116a19.594,19.594,0,0,0,7.867,1.512,9.172,9.172,0,0,0,4.911-1.57.448.448,0,0,0-.477,0M56.133,72.58h0m-.286-.058h0m-1.478.058h0m-.524-.407h0m-1.24.407h0m-1.716,0h0M73.2,96.891h0m-.429,0h0m7.2.465c-.048,0-.1-.058-.1-.058.048,0,.048,0,.1.058m12.873-.465h0m-.429,0h0" transform="translate(-44.5 -63.1)"/></g></g></svg>