<svg xmlns="http://www.w3.org/2000/svg" viewBox="2200.5 316.715 68.791 66.185"><defs><style>.a{opacity:0.79;}.b{fill:none;stroke:#6a00ac;stroke-width:3px;}.c{fill:#6a00ac;}</style></defs><g class="a" transform="translate(2202 318.215)"><path class="b" d="M32.9,0C14.656,0,0,14.331,0,31.593S14.656,63.185,32.9,63.185s32.9-14.331,32.9-31.593S51.134,0,32.9,0m0,60.58"/><path class="c" d="M15.317,35.941V32.684a33.8,33.8,0,0,1-3.908-.977A8.78,8.78,0,0,1,8.8,29.427a13,13,0,0,1-1.3-4.234l3.257-.651c.326,1.628.651,2.931,1.3,3.583a6.758,6.758,0,0,0,3.257,1.954V20.308A9.258,9.258,0,0,1,11.408,19a5.131,5.131,0,0,1-2.28-2.28,5.5,5.5,0,0,1-.977-3.257,6.074,6.074,0,0,1,2.28-5.211,6.443,6.443,0,0,1,4.56-1.628V5h1.954V6.628c1.954.326,3.257.651,4.234,1.628a7.129,7.129,0,0,1,2.606,4.56l-3.257.326a6.137,6.137,0,0,0-1.3-2.931,5.249,5.249,0,0,0-2.28-1.3v9.12A7.122,7.122,0,0,1,19.876,19a5.842,5.842,0,0,1,2.28,1.628,5.249,5.249,0,0,1,1.3,2.28,7.665,7.665,0,0,1,.651,2.606,6.876,6.876,0,0,1-1.954,5.211,7.686,7.686,0,0,1-5.211,2.28v3.257H15.317m0-27.359a6.137,6.137,0,0,0-2.931,1.3,5.253,5.253,0,0,0-.977,2.931,3.7,3.7,0,0,0,.977,2.606,6.3,6.3,0,0,0,2.931,1.628Zm1.628,21.5a3.42,3.42,0,0,0,2.931-1.628,5.787,5.787,0,0,0,1.3-3.257,3.7,3.7,0,0,0-.977-2.606,9.4,9.4,0,0,0-3.257-1.954V30.4Z" transform="translate(16.927 11.285)"/></g></svg>