<svg xmlns="http://www.w3.org/2000/svg" viewBox="2199.983 158.685 66.239 44.515"><defs><style>.a,.b{fill:none;stroke:#6a00ac;stroke-width:2px;}.b{stroke-miterlimit:10;}</style></defs><g transform="translate(2136 -151)"><path class="a" d="M10.9,0A10.9,10.9,0,1,1,0,10.9,10.9,10.9,0,0,1,10.9,0Z" transform="translate(69.378 310.685)"/><path class="b" d="M15.779,26.8C7.453,26.8.672,34.783.5,44.74H31.058C30.886,34.783,24.1,26.8,15.779,26.8Z" transform="translate(64.5 308.46)"/><path class="b" d="M51.579,26.8c-8.326,0-15.107,7.983-15.279,17.94H66.858C66.686,34.783,59.9,26.8,51.579,26.8Z" transform="translate(59.429 308.46)"/><path class="b" d="M59.025,7.2a9.873,9.873,0,0,0-18.7,0A13.634,13.634,0,0,1,32.1,12.689c2.077,3.691,5.113,5.064,8.948,4.463a9.67,9.67,0,0,0,17.1,0c3.835.6,6.871-.773,8.948-4.463A13.769,13.769,0,0,1,59.025,7.2Z" transform="translate(61.629 310.185)"/></g></svg>