<svg xmlns="http://www.w3.org/2000/svg" xmlns:xlink="http://www.w3.org/1999/xlink" viewBox="519.152 3.988 54.097 56.212"><defs><style>.a{fill:#505050;opacity:0.71;}.b{fill:#6a00ac;}.c{fill:#fff;}.d{fill:#520493;}.e{filter:url(#a);}</style><filter id="a" x="519.152" y="3.988" width="54.097" height="54.097" filterUnits="userSpaceOnUse"><feOffset dy="3" input="SourceAlpha"/><feGaussianBlur stdDeviation="3" result="b"/><feFlood flood-opacity="0.161"/><feComposite operator="in" in2="b"/><feComposite in="SourceGraphic"/></filter></defs><g transform="translate(537 6.809)"><ellipse class="a" cx="8.755" cy="0.889" rx="8.755" ry="0.889" transform="translate(12.876 51.613)"/><path class="b" d="M42.642,21.335A21.321,21.321,0,1,0,0,21.335a23.226,23.226,0,0,0,2.047,9.832C5.6,38.844,18.075,49.269,21.712,52.5l.027-.242-.027-.027C32.164,42.858,36.285,37.874,37.74,35.666l1.778-3.206v-.054A21.03,21.03,0,0,0,42.642,21.335ZM21.254,37.255A16.163,16.163,0,1,1,37.416,21.092,16.175,16.175,0,0,1,21.254,37.255Z" transform="translate(-12)"/><g class="e" transform="matrix(1, 0, 0, 1, -537, -6.81)"><path class="c" d="M18.048,0A18.048,18.048,0,1,1,0,18.048,18.048,18.048,0,0,1,18.048,0Z" transform="translate(528.15 9.99)"/></g><path class="d" d="M53.9,56.813c0-.943-.027-1.886,0-2.828,0-.377-.108-.539-.485-.512a3.53,3.53,0,0,1-.754,0c-.215-.027-.593-.054-.62-.162a2.629,2.629,0,0,1,.054-.916c0-.081.108-.162.189-.242l6.384-7.677a1.02,1.02,0,0,1,1.724-.027c2.155,2.559,4.283,5.145,6.411,7.731a2.055,2.055,0,0,1,.242,1.024c0,.081-.216.215-.35.242a5.828,5.828,0,0,1-.97,0c-.458-.027-.62.108-.62.593.027,1.832,0,3.664.027,5.5,0,.431-.108.593-.566.566-.916-.027-1.8-.027-2.721,0-.377,0-.485-.135-.485-.485.027-1.131,0-2.29.027-3.421,0-.4-.135-.539-.512-.539-.916.027-1.8.027-2.721.027-.35,0-.458.135-.458.485,0,1.158-.027,2.317,0,3.475,0,.35-.108.485-.458.458-.97-.027-1.913-.027-2.882,0-.35,0-.431-.135-.431-.431C53.9,58.726,53.9,57.783,53.9,56.813Z" transform="translate(-50.005 -31.138)"/></g></svg>