<svg xmlns="http://www.w3.org/2000/svg" viewBox="2389 322.532 57 53.968"><defs><style>.a{fill:#6a00ac;}</style></defs><g transform="translate(2133 -149)"><g transform="translate(256 471.532)"><path class="a" d="M6,48.826v-25.1A7.458,7.458,0,0,0,7.7,23.6V45.915H19.947v-14.8h13.7V45.794H46.264V24.813h2.062V48.947H31.347V33.787H22.979c-.485,5.336-.849,10.309-1.334,15.16C16.551,48.826,11.215,48.826,6,48.826Z" transform="translate(1.277 5.021)"/><path class="a" d="M0,27.166C9.338,18.191,18.677,9.338,28.379,0,38.081,9.217,47.54,18.191,57,27.166v1.213c-1.94-1.213-4.245-2.062-5.943-3.517-7.519-7.034-14.8-14.189-22.679-21.587C20.738,10.551,13.34,17.706,5.821,24.619,4.123,26.2,1.94,27.045,0,28.257Z"/><path class="a" d="M38.783,13.117c-.243-2.183-.364-4.487-.728-7.034-2.3-.364-4.73-.849-7.155-1.213V3.9h9.46v9.217Z" transform="translate(6.574 0.83)"/></g></g></svg>