<svg xmlns="http://www.w3.org/2000/svg" viewBox="2381 157.677 67.277 47.129"><defs><style>.a{fill:#f7f7f7;}.a,.b{stroke:#6a00ac;stroke-width:2px;}.b{fill:none;}</style></defs><g transform="translate(2139.063 -149)"><g transform="translate(242.937 307.685)"><path class="a" d="M203.566,46.2A10.076,10.076,0,0,0,193.5,56.467a10.269,10.269,0,0,0,10.167,10.167,10.139,10.139,0,0,0,10.167-10.167A10.245,10.245,0,0,0,203.566,46.2Zm.1,15.2a4.984,4.984,0,0,1-5.033-5.033,5.114,5.114,0,0,1,5.033-5.033,5.052,5.052,0,0,1,4.068,2.216,4.818,4.818,0,0,1,.864,2.817A4.963,4.963,0,0,1,203.667,61.4Z" transform="translate(-192.653 -21.513)"/><path class="b" d="M244.949,51.6a7.449,7.449,0,1,0,7.449,7.55A7.432,7.432,0,0,0,244.949,51.6Zm0,11.576a4.128,4.128,0,1,1,4.127-4.127A4.126,4.126,0,0,1,244.949,63.176Z" transform="translate(-190.678 -21.477)"/><path class="b" d="M257.028,51.585a6.252,6.252,0,0,0-1.409-2.517,8.761,8.761,0,0,0-2.114-1.51c-.5-.3-.6-.6-.4-1.208a47.352,47.352,0,0,0,1.208-5.134c.5-2.718-.2-3.926-2.617-5.234a72.614,72.614,0,0,0-15.9-5.536c-3.322-.805-6.342-1.107-9.059,1.51h-.2c-.4-.6,1.007-.1.5-.7.906-.6-.3-2.416.4-2.919.6-.5,1.208-1.007.6-1.812-.6-.7-1.208-.4-1.812,0-2.215,1.611-4.328,3.221-6.543,4.832-.6.4-1.107,1.007-.5,1.711.5.7,1.208.4,1.812,0,.805-.6,1.711-.5,2.517-1.107.5.7.906.7,1.409,1.309-.2.2-.4.3-.6.5-1.711,1.309-2.013,2.517-.805,4.429.6,1.007,1.309,1.812,1.812,2.819.6,1.208,1.007,2.416,1.711,3.825h-9.865a1.362,1.362,0,0,1-1.007-.7c-.6-1.107-1.107-2.215-1.711-3.322-.6-1.208-1.409-2.315.2-3.221a4.79,4.79,0,0,0-4.53-2.617h-6.04c-1.107,0-1.409-.6-1.007-1.611a4.324,4.324,0,0,0,.5-2.114c-.5-2.114-1.107-4.328-1.711-6.442-.1-.4-.5-.7-.805-1.007a1.416,1.416,0,0,0-2.416.6,3.2,3.2,0,0,0-.2,1.409V35.58a3.133,3.133,0,0,0,1.812,3.12,6.731,6.731,0,0,0-3.724,4.228,1.776,1.776,0,0,1-.805.906c-1.107,1.007-2.416,1.913-3.422,3.02a1.645,1.645,0,0,0,.1,2.416c.805.6.444-.369,1.148-.973.2-.2,1.972-.537,2.173-.738,3.825-4.026,9.764-3.825,14.5-.805a11.627,11.627,0,0,1,4.731,14.092,2.907,2.907,0,0,0,2.617,3.825h7.348c2.013,0,4.127.4,5.939-.2s3.221-2.215,4.832-3.322c.1-.1.2-.1.3-.2.2-.5.6-.906.6-1.409a8.88,8.88,0,0,1,5.134-8.355,8.033,8.033,0,0,1,9.563,1.208,4.99,4.99,0,0,0,4.228,1.309A1.636,1.636,0,0,0,257.028,51.585Z" transform="translate(-191.822 -23.348)"/></g></g></svg>