<?xml version="1.0" encoding="utf-8"?>
<!-- Generator: Adobe Illustrator 21.0.2, SVG Export Plug-In . SVG Version: 6.00 Build 0)  -->
<svg version="1.1"
	 id="svg2" inkscape:export-filename="C:\local_svn\Qlinqo\Resources\ball-small.png" inkscape:export-xdpi="3.5999997" inkscape:export-ydpi="3.5999997" inkscape:version="0.48.2 r9819" sodipodi:docname="ball.svg" xmlns:cc="http://creativecommons.org/ns#" xmlns:dc="http://purl.org/dc/elements/1.1/" xmlns:inkscape="http://www.inkscape.org/namespaces/inkscape" xmlns:rdf="http://www.w3.org/1999/02/22-rdf-syntax-ns#" xmlns:sodipodi="http://sodipodi.sourceforge.net/DTD/sodipodi-0.dtd" xmlns:svg="http://www.w3.org/2000/svg"
	 xmlns="http://www.w3.org/2000/svg" xmlns:xlink="http://www.w3.org/1999/xlink" x="0px" y="0px" viewBox="0 0 744.1 1052.4"
	 style="enable-background:new 0 0 744.1 1052.4;" xml:space="preserve">
<style type="text/css">
	.st0{fill:url(#SVGID_1_);}
	.st1{display:none;}
	.st2{display:inline;fill:#262626;}
	.st3{fill:url(#SVGID_2_);}
	.st4{opacity:0.82;fill:url(#SVGID_3_);enable-background:new    ;}
	.st5{fill:url(#SVGID_4_);}
	.st6{fill:url(#SVGID_5_);}
	.st7{fill:url(#SVGID_6_);}
</style>
<radialGradient id="SVGID_1_" cx="383" cy="461" r="7.4" gradientTransform="matrix(1 0 0 -1 0 1052)" gradientUnits="userSpaceOnUse">
	<stop  offset="0.5171" style="stop-color:#C8841D"/>
	<stop  offset="0.9718" style="stop-color:#CD9500"/>
</radialGradient>
<circle class="st0" cx="383" cy="591" r="7.4"/>
<sodipodi:namedview  bordercolor="#666666" borderopacity="1.0" id="base" inkscape:current-layer="layer2" inkscape:cx="68.828412" inkscape:cy="554.31035" inkscape:document-units="px" inkscape:pageopacity="0.0" inkscape:pageshadow="2" inkscape:window-height="977" inkscape:window-maximized="1" inkscape:window-width="1280" inkscape:window-x="-4" inkscape:window-y="-4" inkscape:zoom="0.49497475" pagecolor="#ffffff" showgrid="false">
	</sodipodi:namedview>
<g id="layer1" inkscape:groupmode="layer" inkscape:label="Background" class="st1">
	<rect id="rect4102" x="137.1" y="246.6" class="st2" width="531.4" height="631.4"/>
</g>
<radialGradient id="SVGID_2_" cx="381.0795" cy="461.1801" r="7.0798" fx="376.6581" fy="458.0493" gradientTransform="matrix(1 0 0 -1 0 1052)" gradientUnits="userSpaceOnUse">
	<stop  offset="0.5171" style="stop-color:#FBDD54"/>
	<stop  offset="0.9718" style="stop-color:#F3B400"/>
</radialGradient>
<path class="st3" d="M387,594.2c-0.1-0.1-0.1,0-0.1,0.1c0,0.1,0,0.1,0,0.2c0.1,0.3,0,0.5,0,0.8c0,0.1,0,0.1,0,0.2c0,0,0,0,0,0.1
	c0.2,0.3,0.4,0.6,0.7,0.8c0.4-0.4,0.8-0.8,1.1-1.2c-0.3-0.1-0.6-0.3-0.9-0.4C387.6,594.5,387.3,594.4,387,594.2z"/>
<radialGradient id="SVGID_3_" cx="381.0795" cy="461.1801" r="7.0798" fx="376.6581" fy="458.0493" gradientTransform="matrix(1 0 0 -1 0 1052)" gradientUnits="userSpaceOnUse">
	<stop  offset="0.2855" style="stop-color:#FBDD54"/>
	<stop  offset="0.9718" style="stop-color:#F3B400"/>
</radialGradient>
<path class="st4" d="M386.2,595.9c-0.2-0.2-0.5-0.4-0.8-0.4c-0.1,0-0.2,0-0.2-0.1c0,0,0,0,0,0h0l0,0l0,0c-0.1,0-0.1,0-0.2-0.1
	c-0.1,0-0.2,0-0.2-0.1l0,0c0,0,0,0,0,0c0,0-0.1,0-0.1,0c0,0,0,0,0,0c0,0,0,0,0,0c0,0,0,0,0,0c0,0,0,0,0,0c0,0,0,0,0,0
	c-0.3-0.2-0.5-0.4-0.7-0.7c-0.1-0.1-0.1-0.2-0.3-0.1c-0.5,0.2-0.9,0-1.3-0.3c-0.2-0.1-0.3-0.2-0.4-0.3c-0.1-0.1-0.1-0.2-0.1-0.3
	c0-0.2,0-0.4-0.1-0.5c0,0,0,0,0-0.1c0,0,0,0,0,0c0-0.4-0.2-0.5-0.5-0.6c-0.5-0.2-0.6-0.6-0.8-1c-0.2-0.4-0.3-0.8-0.5-1.3
	c0-0.1-0.1-0.1-0.2-0.1c-0.7-0.1-1.4-0.2-2.1-0.2c-0.3,0-0.4-0.1-0.4-0.4c-0.1-0.1-0.1-0.3-0.2-0.5l0-0.1c0.4,0,0.8-0.1,1.2-0.1
	c0.2,0,0.3-0.1,0.4-0.1c0.2-0.1,0.4-0.2,0.5-0.3c0.3-0.2,0.6-0.2,0.9-0.2c0,0,0.1,0,0.1,0c0.3-0.1,1-0.6,1.4-0.8
	c0,0.1,0,0.2-0.1,0.3c-0.1,0.1,0,0.2,0.1,0.2c0.2,0,0.5,0.1,0.8,0.1c-0.3,0.3-0.5,0.6-0.9,0.6c-0.2,0-0.5,0.1-0.8,0.1
	c-0.1,0-0.1,0.1,0,0.1c0.1,0.2,0.3,0.5,0.4,0.8c0,0,0,0.1,0,0.1c0.1,0.2,0.3,0.4,0.4,0.6c0.3,0.4,0.8,0.6,1.3,0.7
	c0.7,0.1,1.4,0.1,2.1,0.2c0.4,0,0.9,0.1,1.3,0.3c0.3,0.1,0.6,0.3,0.8,0.6c0.3,0.4,0.7,0.8,1,1.2c0.1,0.2,0.3,0.3,0.4,0.5
	c0,0,0.1,0.1,0.1,0.1c0.1,0,0.1,0.1,0.2,0.1c0.2,0.2,0.4,0.3,0.5,0.5c0.5-0.9,0.7-2,0.7-3.1c0-3.9-3.2-7.1-7.1-7.1s-7.1,3.2-7.1,7.1
	c0,3.9,3.2,7.1,7.1,7.1c1.6,0,3-0.5,4.2-1.4c-0.3-0.1-0.5-0.3-0.7-0.5C386.3,596.1,386.2,596,386.2,595.9z"/>
<radialGradient id="SVGID_4_" cx="381.0795" cy="461.1801" r="7.0798" fx="376.6581" fy="458.0493" gradientTransform="matrix(1 0 0 -1 0 1052)" gradientUnits="userSpaceOnUse">
	<stop  offset="0.5171" style="stop-color:#FBE467"/>
	<stop  offset="0.9718" style="stop-color:#F3C700"/>
</radialGradient>
<path class="st5" d="M384.6,595L384.6,595C384.6,595,384.6,594.9,384.6,595C384.6,595,384.6,595,384.6,595z"/>
<radialGradient id="SVGID_5_" cx="381.0795" cy="461.1801" r="7.0798" fx="376.6581" fy="458.0493" gradientTransform="matrix(1 0 0 -1 0 1052)" gradientUnits="userSpaceOnUse">
	<stop  offset="0.5171" style="stop-color:#FBE467"/>
	<stop  offset="0.9718" style="stop-color:#F3C700"/>
</radialGradient>
<path class="st6" d="M379.6,589L379.6,589C379.6,589,379.6,589,379.6,589C379.6,589,379.6,589,379.6,589z"/>
<radialGradient id="SVGID_6_" cx="381.0795" cy="461.1801" r="7.0798" fx="376.6581" fy="458.0493" gradientTransform="matrix(1 0 0 -1 0 1052)" gradientUnits="userSpaceOnUse">
	<stop  offset="0.5171" style="stop-color:#FBE467"/>
	<stop  offset="0.9718" style="stop-color:#F3C700"/>
</radialGradient>
<path class="st7" d="M384.8,595L384.8,595C384.8,595,384.8,595,384.8,595C384.7,595,384.8,595,384.8,595z"/>
</svg>
