<svg xmlns="http://www.w3.org/2000/svg" viewBox="0 0 422 558"><defs><style>.a,.b,.c{fill:#b10000;}.a{opacity:0.11;}.b{opacity:0.24;}.c{opacity:0.45;}</style></defs><title>bullseye</title><path class="a" d="M292.5,571a278.36,278.36,0,0,0,211-96.46V109.46a279,279,0,0,0-422,0V474.54A278.36,278.36,0,0,0,292.5,571Zm0-460a181,181,0,1,1-181,181A181,181,0,0,1,292.5,111Z" transform="translate(-81.5 -13)"/><path class="b" d="M292.5,473a181,181,0,1,0-181-181A181,181,0,0,0,292.5,473Zm0-271a90,90,0,1,1-90,90A90,90,0,0,1,292.5,202Z" transform="translate(-81.5 -13)"/><circle class="c" cx="211" cy="279" r="90"/></svg>