<svg xmlns="http://www.w3.org/2000/svg" viewBox="0 0 292 194.24"><defs><style>.a{fill:#fff;}.b{fill:none;}.c{fill:#8dc600;}.d{fill:#450175;}.e{fill:#ffbe01;}</style></defs><title>kb101-logo</title><path class="a" d="M256.41,155.39a90.23,90.23,0,0,1,21.28-13.75l12-5.61,4.3-2c-8-1.3-16-2.92-24-3.73a96.14,96.14,0,0,0-15.13-.34q-1.74.1-3.47.26l-1.6.16c-.66.07-.63.14-1-.25a11.69,11.69,0,0,1-1.22-2.74,139.24,139.24,0,0,1-7.29-21.58C238.15,97.12,236.79,88,237.7,79a36.16,36.16,0,0,1,3-11.63,27.26,27.26,0,0,1,6.57-8.48,24.92,24.92,0,0,0,3.39-4.66c1-1.56,2.59-2.48,3.26-4.35a7.07,7.07,0,0,0-.38-5.57c-1-1.86-2.52-2.75-4.3-3.67-3.37-1.74-6.32-4.14-9.77-5.76-2.15-1-4.43-1.87-6.62-2.81a231,231,0,0,0-49.66-15.23,185.68,185.68,0,0,0-53.34-1.95A216.83,216.83,0,0,0,75.05,28.7c-5.05,2-10.2,4-15.09,6.3-3.51,1.65-6.5,4.14-9.95,5.86s-5.7,5.29-4.16,9.22c.73,1.86,2.37,2.85,3.39,4.49a20.05,20.05,0,0,0,3.37,4.51,25.83,25.83,0,0,1,6.55,8.67c3.36,7.52,3.51,16.26,2.67,24.33a116.5,116.5,0,0,1-6.38,26.68,114.56,114.56,0,0,1-5.21,12.65,30.06,30.06,0,0,0-2.57,11.24,113.06,113.06,0,0,0-27-.37L6.74,143.72,2,144.21c7.73,3,15.63,5.85,23.2,9.3a93.68,93.68,0,0,1,14.15,8,63.24,63.24,0,0,0-15.84,13.72l-7.58,9c8.18-1.6,16.44-3.68,24.81-3.81a62.28,62.28,0,0,1,12,1q2.84.51,5.62,1.29a7.87,7.87,0,0,1,2.44.74c.5.54.72,2.2.94,2.88l1.82,5.56,3.12,9.53c4.33-1.89,8.65-3.75,13.07-5.42q2.54-1,5.1-1.85a7.63,7.63,0,0,1,2.31-.78,10.53,10.53,0,0,1,2.65,1.29q4.78,2.25,9.72,4.11a147.12,147.12,0,0,0,38.72,8.86,139.19,139.19,0,0,0,54-6.16q5.65-1.78,11.15-4,2.79-1.14,5.52-2.39a6.2,6.2,0,0,1,2.49-1,12.15,12.15,0,0,1,2.75,1c5.29,1.92,10.45,4.12,15.61,6.36l2.84-8.66,2-6,.74-2.25a4.94,4.94,0,0,1,.44-1.34c.38-.47,1.49-.61,2.06-.79a50.75,50.75,0,0,1,18.56-2.14,75.83,75.83,0,0,1,15.12,3l11.14,3.08c-5-7.25-9.69-14.93-15.67-21.39A73.74,73.74,0,0,0,256.41,155.39Z" transform="translate(-2 -13.8)"/><path class="b" d="M115.09,132.23a3.75,3.75,0,0,0,2.44-1.53,7.9,7.9,0,0,0,1.23-3.64q1.24-9.49,2-19a6.3,6.3,0,0,0-.42-3.46,1.85,1.85,0,0,0-2-.91,2.84,2.84,0,0,0-2.16,1.39,8.43,8.43,0,0,0-1,3.67q-.91,9.67-2.38,19.35a5.71,5.71,0,0,0,.19,3.48A1.82,1.82,0,0,0,115.09,132.23Z" transform="translate(-2 -13.8)"/><path class="c" d="M201.58,186.19c-22.76,9.69-46.69,10.29-50.35,10.1-3.66.19-27.59-.41-50.29-10.18q-2.05-.86-4.11-1.79-4.27,1.07-8.5,2.31c19.18,10.37,42.23,15,63.23,15,19.57-.1,42-4.6,60.61-14.37q-3.92-1.2-7.88-2.25C203.39,185.41,202.48,185.81,201.58,186.19Z" transform="translate(-2 -13.8)"/><path class="c" d="M234.26,72c2.19-6.55,6.67-12.07,11-16.53,6.8-7,2.19-9.36-9.14-14.92A197.43,197.43,0,0,0,150.5,20.69,197.59,197.59,0,0,0,64.89,40.61C47.83,49,54.45,50.21,62.12,62.36c9.39,14.89,7.26,32.22,2.72,48.51-6,21.63-15.68,37.22-1.71,55.43,1.55-.59,3.1-1.15,4.65-1.71-6.2-7.27-9.24-15.83-6.4-25.81a153.85,153.85,0,0,0,11.68-34c4.11-19.36,4.76-44.2-10.88-56.85C62.1,48,72.77,42.81,89,37.15S127,25.57,151.08,26h.3c24-.47,45.84,5.55,62.12,11.11S240.36,48,240.29,47.94c-15.64,12.65-15,37.48-10.88,56.85a153.84,153.84,0,0,0,11.68,34c3,10.49-.53,19.42-7.37,26.93l2.29.85-1.53,4.12c.48-.51,1-1,1.42-1.54,22.06-25,.87-45.95-2.64-72.93C232.23,88.38,231.7,79.67,234.26,72Z" transform="translate(-2 -13.8)"/><path class="d" d="M120.46,159.06c2.83,2.91,4.89,4.15,7.39,7.4s1.67,5.18,6,7.19c2.71,1.25,6.2-.3,8.06.43,1.51.6,3.19,2.66,4.86,3.79a215.81,215.81,0,0,0-50,6.45q2.06.93,4.11,1.79c22.7,9.76,46.64,10.36,50.29,10.18,3.66.19,27.59-.41,50.35-10.1.9-.38,1.8-.78,2.71-1.18q-10.34-2.73-20.86-4.43c0-.15,0-.28-.06-.43a6.88,6.88,0,0,0-1.86-3.61c9.82,3.18,19.43,4.79,30-1.53-5.56-.62-14.11-1.8-20.56-4a64.7,64.7,0,0,1-18.86-10.92c-4-3.24-7.3-6.76-11.22-9.33a242.44,242.44,0,0,1,72.86,14.94c6.84-7.51,10.35-16.44,7.37-26.93a153.84,153.84,0,0,1-11.68-34c-4.11-19.36-4.76-44.2,10.88-56.85.08.07-10.59-5.13-26.79-10.79S175.42,25.57,151.38,26h-.3c-24-.47-45.84,5.55-62.12,11.11S62.1,48,62.18,47.94c15.64,12.65,15,37.48,10.88,56.85a153.85,153.85,0,0,1-11.68,34c-2.84,10,.2,18.54,6.4,25.81a242.64,242.64,0,0,1,49.23-12C118.16,154.88,119,157.59,120.46,159.06Z" transform="translate(-2 -13.8)"/><path class="c" d="M141.94,174.09c-1.86-.73-5.35.81-8.06-.43-4.37-2-3.63-4.07-6-7.19s-4.56-4.49-7.39-7.4c-1.44-1.48-2.3-4.18-3.45-6.42a242.64,242.64,0,0,0-49.23,12c-1.55.55-3.11,1.12-4.65,1.71l-.72.26,9.53,25.6q8.11-3.11,16.38-5.53,4.23-1.24,8.5-2.31a215.81,215.81,0,0,1,50-6.45C145.13,176.75,143.45,174.68,141.94,174.09Z" transform="translate(-2 -13.8)"/><path class="c" d="M233.71,165.71a242.44,242.44,0,0,0-72.86-14.94c3.92,2.57,7.21,6.09,11.22,9.33A64.7,64.7,0,0,0,190.93,171a92.93,92.93,0,0,0,20.56,4c-10.56,6.32-20.17,4.71-30,1.53a6.88,6.88,0,0,1,1.86,3.61c0,.15,0,.28.06.43q10.5,1.69,20.86,4.43,4,1,7.88,2.25,7.21,2.2,14.31,4.9l8-21.48,1.53-4.12Z" transform="translate(-2 -13.8)"/><path class="e" d="M204.74,175.78c-6.93,1-18.18-4.33-24.3-7.22-2.2-1-10.78-6.48-12.19-7.29a1.24,1.24,0,0,1-.33-.27c-1.29-1.52-7.58-6.94-9-8-4.61-3.57-9.89-3.42-15.63-3.21-4.49.17-9.62,1.09-13.66-1.22a30.88,30.88,0,0,1-6.21-5.55,2.07,2.07,0,0,1,.76-3.22,20.87,20.87,0,0,0,4.06-2.35,1.34,1.34,0,0,0-.93-2.39,9.45,9.45,0,0,0-2.94.63s-.08,0-.08,0c.5-7.24-1.8-1.24-2.7-.6-.37.26-.74.52-1.12.75-2.08,1.3-3,1.18-5.3,1.91a12.53,12.53,0,0,0-5.56,3.06c-1,1-4.88,1.21-8.19,1.68v.5c1.64,2,1.24,3.33,3.91,4,3.32.85,8.58-1.58,11.75-.1,2.64,1.23,3.47,5.62,5.1,7.88,1.79,2.48,4,2.4,6,4.26,3,2.84.66,6.24,5.52,8.4a9.38,9.38,0,0,0,4.42,1.23c1.26,0,1.94-1,3.21-.61,1.54.46,2.89,3.66,4.78,3.62,0,.11.08.08.23,0,.31.18.84.57,1.21.52h0a8.8,8.8,0,0,0,2.2.64l.05.05.05,0c4.57,1,7,3.06,11.26,4.94,4.87,2.17,10.39,1.8,15.15,4.25a2.08,2.08,0,0,0,1.63.14,5,5,0,0,1,1.55-.33c1.17.06,1.18-.52,1.62-1.09-2.55-.25-4-2.33-6.36-3.23-2-.75-4.52-.83-6.54-1.41a1.27,1.27,0,0,0-.91.07l-.59.28a2.08,2.08,0,0,1-1.64,0,6,6,0,0,1-1.55-.92,14.09,14.09,0,0,1-3.46-3,2.06,2.06,0,0,1-.58-1.29,17.93,17.93,0,0,0-.63-4.15,4.32,4.32,0,0,1,.05-1.52c1.65-1.07,15.42,5,18.44,6l.67.33a43.57,43.57,0,0,0,6.07,2.52c5.73,1.23,15.92,3.83,21.38,1.36a.81.81,0,0,0-.67,0m-45.92-4.58a.4.4,0,0,1-.17-.08.4.4,0,0,0,.17.08m20.95-.38h0m-.71,0h0" transform="translate(-2 -13.8)"/><path class="c" d="M25.39,146.66c17.77-1.85,25.82,1.36,25.71-.06C52,159,59.66,169.9,63.67,177.55c.07.13-21.13-3.5-31.93-1.39A54.13,54.13,0,0,1,51.35,161.7a95.49,95.49,0,0,0-26-15" transform="translate(-2 -13.8)"/><path class="c" d="M273,135.5c-15.66-3.49-21.65.42-22.17-1.11,3.21,9.53-5.15,29.13-11.29,37.76-.09.13,19.9,1.25,30.42,2.37-5.61-6.2-11.17-17.29-19.15-20.32,5.64-7.2,12.78-12.71,22.19-18.7" transform="translate(-2 -13.8)"/><path class="a" d="M120.71,76.85l2.45-.32q.11,5.37,0,10.77-6.67.75-13.32,1.84a149.8,149.8,0,0,0-7.95-18.27l-2.05,2.87q.28,3.34.41,6.73l2.33-.5q.19,5.18.06,10.43c-6.12,1.15-12.22,2.5-18.28,4,.13-3.37.1-6.7-.07-10l2.41-.65A102.28,102.28,0,0,0,82.22,58L79.64,59a75.77,75.77,0,0,0-3.26-8.17C83.15,48,90,45.51,96.84,43.36q1.33,4.49,2.38,9.24l-2.5.72q.88,3.77,1.55,7.69c2.16-3.31,4.33-6.61,6.53-9.89L101.5,52q-1-4.79-2.27-9.35a194.68,194.68,0,0,1,20.41-5q.76,5,1.35,10.08l-2.63.46c-2.56,3.38-5.06,6.79-7.54,10.23a157.75,157.75,0,0,1,9.89,18.47" transform="translate(-2 -13.8)"/><path class="a" d="M125.73,87q.07-5.41,0-10.79l2.45-.26c-.15-9.87-.67-19.65-1.53-29.13l-2.63.38q-.53-5.15-1.2-10.16a166,166,0,0,1,21-2.19q.13,5.19.23,10.48l-2.64.11c.29,9.67.46,19.58.5,29.54l2.46-.08q0,5.45,0,10.92Q135,86.08,125.73,87" transform="translate(-2 -13.8)"/><path class="a" d="M148,74.86h2.46c0-10,0-19.86.05-29.54h-2.64q0-5.33-.1-10.56A162.15,162.15,0,0,1,170.27,36c6.17.78,10.79,3.58,13.69,8s3.54,10.76,2.71,19.41-2.55,14.82-5.79,18.37-7.51,5.09-13,4.68Q158,85.7,148,85.78q0-5.46,0-10.92m19.05.65a2.7,2.7,0,0,0,2.52-1,6.26,6.26,0,0,0,.92-3.6c.19-6.61.54-13.16,1-19.6.25-3.15-.79-4.86-3.19-5.12l-3.06-.3c-.6,9.6-1,19.46-1.09,29.4l2.85.2" transform="translate(-2 -13.8)"/><path class="a" d="M208.92,77.46Q213.48,78.65,218,80a111.5,111.5,0,0,0-.39,14.8c-10-2.49-20.05-4.6-30.17-6.14q-.09-4.68,0-9.33c4.9-9.32,10.51-18.16,17.52-25.6q-2.55-.76-5.1-1.46-.47,2.39-.87,4.84-4.79-1.25-9.61-2.27c.63-5,1.42-10,2.36-14.76,13.23,2.29,23.91,6.12,32.74,11q-1.54,3.43-2.78,7.16C214,64.42,208,72.42,203,81.11q2.83.65,5.66,1.35.1-2.52.3-5" transform="translate(-2 -13.8)"/><path class="e" d="M65.94,159q2.14-6.83,3.92-13.35l2.23-1a282.22,282.22,0,0,0,7-33.93l-2,.56q.87-6,1.43-12c7.88-1.84,15.78-3.28,23.7-4.38q-.57,8.56-1.66,17.2-3.65.7-7.29,1.52.46-3.26.84-6.5-1.84.37-3.68.78-.71,5.75-1.69,11.58,3.15-.83,6.3-1.56-.6,3.89-1.32,7.81-3.23.84-6.46,1.79-1.2,6-2.69,12.2,2.93-1,5.85-1.94-1.31,5.75-2.87,11.62A177.11,177.11,0,0,0,65.94,159" transform="translate(-2 -13.8)"/><path class="e" d="M133.29,129.87l2.11-.19c.62-9,1.08-18.23,1.38-27.47l-1.92.11q.19-5.07.3-10.15,8.63-.44,17.26-.4a9,9,0,0,1,7.46,3.39c1.75,2.23,2.69,5.81,2.85,10.69a20.76,20.76,0,0,1-.81,7.06,6.59,6.59,0,0,1-2.93,4l.06.61c2.59.71,4,3.2,4.21,7.35q.12,2.33.26,4.64l2,.15q.34,4.95.74,9.83-7-.67-14-.74-.06-6.89-.11-13.94a10.38,10.38,0,0,0-.49-3.55,2.74,2.74,0,0,0-1.47-1.63,7.17,7.17,0,0,0-2.81-.4q-.06,4.95-.14,9.84l2.78,0q0,4.88,0,9.69a166,166,0,0,0-17.53,1q.46-4.9.85-9.86m16.27-20.31a1.89,1.89,0,0,0,1.71-.84,4.65,4.65,0,0,0,.56-2.63q0-1,0-2a4.94,4.94,0,0,0-.57-2.64,1.85,1.85,0,0,0-1.67-.84l-2.07,0q0,4.47-.08,8.92l2.12,0" transform="translate(-2 -13.8)"/><path class="e" d="M171.23,135c-3.52-4.2-5.44-10.43-5.87-19-.73-16.4,4.42-24.73,14.74-24a17.45,17.45,0,0,1,7.09,2.09,17.75,17.75,0,0,1,5.06,3.86q.59,8.17,1.61,16.38-5-.86-10-1.5-.23-2.29-.42-4.59a8.22,8.22,0,0,0-1-3.64,2.77,2.77,0,0,0-2.16-1.35,1.9,1.9,0,0,0-2,.94,6.31,6.31,0,0,0-.45,3.46q.69,9.49,1.79,18.93a7.6,7.6,0,0,0,1.18,3.6,3.61,3.61,0,0,0,2.43,1.48,1.85,1.85,0,0,0,2.11-.76,5.69,5.69,0,0,0,.24-3.43q-.36-2.57-.68-5.15,5.16.78,10.31,1.82,1.34,8.54,3.19,17.16a9.7,9.7,0,0,1-4.94,1.94,22.3,22.3,0,0,1-7.92-.31c-6-1.16-10.85-3.71-14.35-7.91" transform="translate(-2 -13.8)"/><path class="e" d="M203.65,145.87q-1.29-5.52-2.36-11l2.24.56a300.26,300.26,0,0,1-4.57-30l-2-.31q-.52-5.39-.85-10.76a270.06,270.06,0,0,1,26.77,4.54c.67,7.28,1.69,14.66,3.09,22.2q-4.64-1.49-9.28-2.73-.83-4.93-1.45-9.79-2.45-.56-4.9-1.07.66,5.46,1.56,11,1.83.46,3.66.95.69,4.05,1.52,8.16-1.88-.57-3.76-1.09,1.21,6.29,2.75,12.7,2.7.91,5.41,1.91-1.48-5.88-2.69-11.62,4.8,1.52,9.6,3.32c1.89,8.26,4.21,16.76,7,25.66a175.72,175.72,0,0,0-31.7-12.54" transform="translate(-2 -13.8)"/><path class="e" d="M117.68,133.49c4.65-1,2.76-5,7.19-6.84a9,9,0,0,1,1.11,3.68c.74-.07,1.18.87,1.26.86s1.14.17.68.46c1.34.28.67.12,1.5.3,2.11-4,3.35-9.19,3.75-15.75.52-8.63-.62-14.89-3.11-18.7s-6.18-5.59-11-5.16-8.67,2.91-11.66,7.48-5,11.63-6.51,21.09c-1.43,8.88-1.61,15.21.11,18.81.92-.07,1.7-.34,2.11-.28C106.64,139.93,112.22,134.64,117.68,133.49Zm-4.87-5.43q1.47-9.68,2.38-19.35a8.43,8.43,0,0,1,1-3.67,2.84,2.84,0,0,1,2.16-1.39,1.85,1.85,0,0,1,2,.91,6.3,6.3,0,0,1,.42,3.46q-.77,9.54-2,19a7.9,7.9,0,0,1-1.23,3.64,3.75,3.75,0,0,1-2.44,1.53,1.82,1.82,0,0,1-2.1-.69A5.71,5.71,0,0,1,112.8,128.06Z" transform="translate(-2 -13.8)"/></svg>