<svg xmlns="http://www.w3.org/2000/svg" xmlns:xlink="http://www.w3.org/1999/xlink" viewBox="0 0 572.27 643.67"><defs><style>.a{fill:none;}.b{clip-path:url(#a);}.c{fill:url(#b);}.d{clip-path:url(#c);}.e{fill:url(#d);}.f{clip-path:url(#e);}.g{fill:url(#f);}.h{clip-path:url(#g);}.i{fill:#fab718;}.j{clip-path:url(#h);}.k{fill:#401211;}.l{clip-path:url(#i);}.m{fill:url(#j);}.n{fill:url(#l);}.o{clip-path:url(#m);}.p{fill:url(#n);}.q{clip-path:url(#p);}.r{fill:url(#q);}.s{clip-path:url(#r);}.t{fill:url(#s);}.u{fill:#d66d35;}.v{fill:#422a1f;}.w{clip-path:url(#t);}.x{fill:url(#u);}.y{fill:#5a3f31;}.z{clip-path:url(#w);}.aa{fill:url(#x);}.ab{clip-path:url(#y);}.ac{fill:url(#z);}.ad{fill:#af6327;}.ae{clip-path:url(#ab);}.af{fill:url(#ac);}.ag{fill:#301748;}.ah{fill:#452363;}.ai{fill:#fece07;}.aj{fill:#69b044;}.ak{fill:#c2c1c0;}.al{fill:#efefee;}.am{fill:#d2d2d1;}</style><clipPath id="a"><path class="a" d="M172.77,393.27q-4.67,4.22-9,8.93c-34.89,38.21-4,113.47,48.45,115.5,5.3.2,9.44,3.65,14.27,5.17l8,12.85,18.71,29.9-2.87-2.53S70,513.15,15.24,592.14L276.49,577s-12.18-14.5-18.73-42.2c-.39-1.63-.76-3.31-1.1-5l1,.15c-2.29-16.09-4.86-28.64-5.24-42-.72-24.93-2.69-59.46,27.64-118.21.45-.87-3.61-1.84.57-1a107.8,107.8,0,0,0-28.08-5.85c-30.43-2.06-57.43,10.25-79.75,30.42"/></clipPath><linearGradient id="b" x1="7.18" y1="-137.64" x2="8.18" y2="-137.64" gradientTransform="matrix(0, 220.92, 220.92, 0, 30559.93, -1127.15)" gradientUnits="userSpaceOnUse"><stop offset="0" stop-color="#f9b718"/><stop offset="0.09" stop-color="#f9b718"/><stop offset="0.22" stop-color="#f1ab1c"/><stop offset="0.48" stop-color="#e49623"/><stop offset="0.74" stop-color="#dc8a27"/><stop offset="1" stop-color="#d98628"/></linearGradient><clipPath id="c"><path class="a" d="M148.27,297.82c-3.56,9.18-3.89,17.4-.73,18.36s8.6-5.71,12.16-14.89,3.89-17.4.73-18.35a2.29,2.29,0,0,0-1-.07c-3.22.43-8,6.67-11.18,15"/></clipPath><linearGradient id="d" x1="46.75" y1="-139.41" x2="47.75" y2="-139.41" gradientTransform="matrix(0, 17.34, 17.34, 0, 2571.07, -527.41)" xlink:href="#b"/><clipPath id="e"><path class="a" d="M228.29,331.35c1.33-.49,2.06-.79,2.06-.79l7.07-7.22q-4.6,4.34-9.12,8M122.06,301.11c-1.3.88-9.3,6.5-10.5,16.42a21.35,21.35,0,0,0,3.14,13.68c16,5.12,51.41,15.61,89,15.4a103.72,103.72,0,0,0,24.62-15.25C217.67,335.3,169,351.53,153.22,324c.57-.91,5-8.21,1.31-16.52s-12.68-10.81-13.75-11.07a29.85,29.85,0,0,0-6.53.17,28.34,28.34,0,0,0-12.18,4.56"/></clipPath><linearGradient id="f" x1="3.9" y1="-142.97" x2="4.9" y2="-142.97" gradientTransform="matrix(123.4, 0, 0, -123.4, -368.46, -17321.5)" gradientUnits="userSpaceOnUse"><stop offset="0" stop-color="#de7136"/><stop offset="0.27" stop-color="#da6f35"/><stop offset="0.51" stop-color="#cf6932"/><stop offset="0.74" stop-color="#bd5e2c"/><stop offset="0.96" stop-color="#a35025"/><stop offset="1" stop-color="#9e4d23"/></linearGradient><clipPath id="g"><rect class="a" x="35.82" y="28.83" width="472.09" height="570.78" transform="translate(-39.33 38.9) rotate(-7.63)"/></clipPath><clipPath id="h"><rect class="a" x="303.92" y="327.86" width="1.83" height="0.3" transform="translate(-40.87 43.4) rotate(-7.63)"/></clipPath><clipPath id="i"><path class="a" d="M116.27,333.54a29.07,29.07,0,0,0,13.43,9.81c3.84,1.2,31,11.32,51.6,9.11a77.55,77.55,0,0,0,22.37-5.86c-37.56.21-72.94-10.28-89-15.4.61,1,1.18,1.8,1.57,2.33"/></clipPath><linearGradient id="j" x1="3.9" y1="-142.95" x2="4.9" y2="-142.95" gradientTransform="matrix(124.03, 0, 0, -124.03, -367.43, -17388.6)" xlink:href="#f"/><linearGradient id="l" x1="4.9" y1="-145.37" x2="5.9" y2="-145.37" gradientTransform="matrix(87.66, 0, 0, -87.66, -313.88, -12402.61)" xlink:href="#b"/><clipPath id="m"><path class="a" d="M294.29,135.89c41.15-69.32,2.73-113,2.73-113-48.69,57.83-2.73,113-2.73,113"/></clipPath><linearGradient id="n" x1="10.76" y1="-137.36" x2="11.76" y2="-137.36" gradientTransform="matrix(0, 109.16, 109.16, 0, 15287.51, -1149.49)" gradientUnits="userSpaceOnUse"><stop offset="0" stop-color="#f9b718"/><stop offset="0.05" stop-color="#f4af1b"/><stop offset="0.18" stop-color="#e89d21"/><stop offset="0.35" stop-color="#df9025"/><stop offset="0.56" stop-color="#da8827"/><stop offset="1" stop-color="#d98628"/></linearGradient><clipPath id="p"><path class="a" d="M328.91,128.3c66.37-46.87,48.41-85.05,48.41-85.05-59.41,45.19-49.2,81.78-48.41,85.05"/></clipPath><linearGradient id="q" x1="4.38" y1="-151.35" x2="5.38" y2="-151.35" gradientTransform="matrix(59.78, -14.53, -7.55, -51.2, -1081.21, -7591.54)" gradientUnits="userSpaceOnUse"><stop offset="0" stop-color="#f9b718"/><stop offset="0.09" stop-color="#f9b718"/><stop offset="0.12" stop-color="#f5b11a"/><stop offset="0.21" stop-color="#e89e20"/><stop offset="0.32" stop-color="#e09025"/><stop offset="0.47" stop-color="#db8827"/><stop offset="0.73" stop-color="#d98628"/><stop offset="1" stop-color="#d98628"/></linearGradient><clipPath id="r"><path class="a" d="M314.77,126.35c-16.25,4-22.13,4.65-46.55,5.42L250.48,174l-144,35.43a78.54,78.54,0,0,0,7.85,10.22c23.58,7.61,104.33,29.83,160.28-1.92,0,0-.95.86-2.73,2.3l2.1-1.51,21.23,25.32c-12.23,8.34-28.37,19.33-45.21,34a282.67,282.67,0,0,0-33.52,34.48,247,247,0,0,0-19.87,28.15c-17.83,29.48-17.7,78.11-15.59,79.91l-.68.2-.54.16-1.22.36-28.67,5.16L348.16,393.5l1-1.16c-4.35-19.9-8.16-40.92-11.16-63-3.11-13.35-5.55-26.34-7.33-39.47-1.72-12.67-2.81-25.48-3.29-38.9-1.25-35.68,1.9-75.7,9.55-128.88,0,0-.84.05-2.58.29a183.32,183.32,0,0,0-19.61,4"/></clipPath><linearGradient id="s" x1="9.97" y1="-137.35" x2="10.97" y2="-137.35" gradientTransform="matrix(0, 123.68, 123.68, 0, 17224.16, -907.09)" xlink:href="#b"/><clipPath id="t"><path class="a" d="M274,218.89c1.78-1.44,2.73-2.3,2.73-2.3-55.95,31.74-136.7,9.52-160.28,1.92,18.69,21.06,70.85,62.36,157.55.38"/></clipPath><linearGradient id="u" x1="4.48" y1="-141.64" x2="5.48" y2="-141.64" gradientTransform="matrix(160.01, 0, 0, -160.01, -598.15, -22420.85)" xlink:href="#b"/><clipPath id="w"><path class="a" d="M166.16,440.23c16.21,27,43.26,49.94,77.28,65.64,42.55,16.52,93.2,18.54,137.53,9.76l-10.44-11c-5-.53-9.78-3.08-15-2.22-51.79,8.48-97.08-59.1-70.53-103.51q3.27-5.46,7-10.53a542.38,542.38,0,0,1-68.69-9.18c-27.12-5.42-41.66-7.62-68.8-18.1-1.76,19.75-4,49.05,11.66,79.14"/></clipPath><linearGradient id="x" x1="9.41" y1="-137.26" x2="10.41" y2="-137.26" gradientTransform="matrix(0, 136.22, 136.22, 0, 18961.08, -880.87)" xlink:href="#b"/><clipPath id="y"><path class="a" d="M509.83,387.2a13,13,0,0,1-2.21,1.06c-1.72-1.74-26.39,29.25-29.32,29.68-4.07,4.18-55.36,46.4-113.57,49.48a33.45,33.45,0,0,1-8.41-.73c3,13,8.07,24.82,13.52,40.12l-1,0c.68,1.62,1.38,3.19,2.08,4.71,5.59-1.67,11-3.51,16.26-5.54,55.18-21.36,97.38-65.37,118.2-97.87,3.83-7.24,6.29-13.51,7.23-18.29-.12-2.77-.23-1-.56-3.74h0a18.18,18.18,0,0,0-2.19,1.07"/></clipPath><linearGradient id="z" x1="6.74" y1="-133.59" x2="7.74" y2="-133.59" gradientTransform="matrix(-172.63, 0, 0, 172.63, 1689.71, 23510.88)" xlink:href="#b"/><clipPath id="ab"><path class="a" d="M268.31,391q-3.74,5.07-7,10.54C234.74,446,280,513.57,331.83,505.09c5.23-.86,10,1.69,15,2.22l10.44,11,24.3,25.56-3.32-1.91S191.55,529,153.63,617.35l253-67s-14.82-11.78-26.78-37.62c-.71-1.52-1.4-3.09-2.08-4.71l1,0c-5.46-15.31-10.47-27.1-13.52-40.12-5.68-24.28-14.5-57.73,3.5-121.35.27-.94-3.9-1.09.36-1.06a107.8,107.8,0,0,0-28.69-.13c-30.22,4.05-54.23,21.51-72.07,45.72"/></clipPath><linearGradient id="ac" x1="7.33" y1="-137.12" x2="8.33" y2="-137.12" gradientTransform="matrix(0, 220.92, 220.92, 0, 30558.77, -1159.02)" xlink:href="#b"/></defs><title>roo</title><g class="b"><rect class="c" x="11.15" y="343.52" width="283.75" height="270.56" transform="translate(-17.55 5.97) rotate(-2.11)"/></g><g class="d"><rect class="e" x="140.82" y="282.62" width="26.49" height="35.04" transform="translate(-66.36 44.73) rotate(-13.62)"/></g><g class="f"><rect class="g" x="109.43" y="287.84" width="128.77" height="66.44" transform="translate(-58.24 39.21) rotate(-11.03)"/></g><g class="h"><path class="i" d="M237.42,323.34l2.08-2.7S170.93,355,153.22,324c.57-.91,5-8.21,1.31-16.51s-12.68-10.81-13.75-11.08a29.62,29.62,0,0,0-18.72,4.73c-1.3.88-9.3,6.5-10.5,16.42a21.35,21.35,0,0,0,3.14,13.68c16,5.11,51.41,15.61,89,15.4,11.33-4.83,22.32-12.48,33.74-23.27"/><g class="j"><path class="k" d="M304.54,328.11l-.59.17,1.21-.22s1.6-.76-.62,0"/></g></g><g class="l"><rect class="m" x="115.5" y="322.83" width="87.77" height="35.18" transform="translate(-62.21 36.8) rotate(-11.03)"/></g><g class="l"><rect class="n" x="115.47" y="322.69" width="87.85" height="35.44" transform="translate(-23.68 12.13) rotate(-4.06)"/></g><g class="o"><rect class="p" x="243.01" y="19.69" width="99.39" height="120.22" transform="translate(-10.56 71.19) rotate(-13.62)"/></g><g class="h"><path class="i" d="M386,26.06c-76.53,51.13-66.67,107.06-65.94,112,85.22-51.85,65.94-112,65.94-112"/></g><g class="q"><polygon class="r" points="312 52.11 388.74 33.45 401.28 118.49 324.55 137.15 312 52.11"/></g><g class="s"><rect class="t" x="102.55" y="124.97" width="267.63" height="300.23" transform="translate(-58.14 63.41) rotate(-13.62)"/></g><path class="u" d="M153.92,380.12c-.55,3.4-1.16,7.75-1.61,12.81a112,112,0,0,1,3.33-12.57Z"/><path class="v" d="M303.59,160.16c-.6,6-3.44,10.67-6.34,10.47s-4.76-5.21-4.15-11.19,3.44-10.67,6.34-10.47,4.76,5.21,4.15,11.19"/><path class="v" d="M282.62,158.8c-.4,5.94-2.84,10.55-5.44,10.29s-4.39-5.28-4-11.22,2.84-10.55,5.44-10.29,4.39,5.28,4,11.22"/><rect class="a" x="35.82" y="28.83" width="472.09" height="570.78" transform="translate(-39.33 38.9) rotate(-7.63)"/><g class="w"><rect class="x" x="118.41" y="202.72" width="163.25" height="81.01" transform="translate(-16.7 14.76) rotate(-4.06)"/></g><g class="h"><path class="v" d="M155.52,194.08l-26.19,39.38S98.64,213.1,99.32,211Z"/><path class="y" d="M417.6,334.24a26.5,26.5,0,0,0-1.81-18c-2.07-3.79-7.08-31.4-34.18-43.91-18.57-8.57-44.33-10.84-70.2-11.86l-5.3,6.92s97.81,8.45,82.68,47.3c-1.36.34-12.16,3.26-17.11,12.89a19.65,19.65,0,0,0,.84,19.27,32.76,32.76,0,0,0,20.35,9.64l.26,0a34.57,34.57,0,0,0,12.9-5.45,28.43,28.43,0,0,0,11.56-16.84"/></g><g class="z"><rect class="aa" x="146.36" y="336.74" width="232.69" height="207.43" transform="translate(-96.35 74.27) rotate(-13.62)"/></g><g class="ab"><rect class="ac" x="340.73" y="354.1" width="193.35" height="190.16" transform="translate(-187.46 500.52) rotate(-50.46)"/></g><g class="h"><path class="ad" d="M288.22,368.89c-27.35,26.39-81.28,90.21,11.9,132.3,2.15.78.37.36.37.36-48.76-31.31-20.64-108.9-12.27-132.66"/><path class="ad" d="M183.54,369.24c10.1,6.9,43.62,21.13,139.18,7.21,2-.34.57,0,.57,0-59.15,6.61-114.22,2.3-139.75-7.17"/></g><g class="ae"><rect class="af" x="124.15" y="343.5" width="283.75" height="270.56" transform="translate(-105.28 76.13) rotate(-13.62)"/></g><path class="i" d="M419.63,331.69A29.36,29.36,0,0,0,416,313.25c-2.43-3.79-10.24-32-38.06-43.24-19.06-7.72-44.5-8.5-69.9-8l-4.45,7.46s96.54,2.81,85.85,43.8c-1.29.44-11.54,4.1-15.36,14.33-3.88,10.39,2.13,18.84,2.86,19.83,1.66,1.57,7.33,11.36,20.91,8.71a1.68,1.68,0,0,1,.26,0,31.46,31.46,0,0,0,12-6.4,28.21,28.21,0,0,0,9.52-18.08"/><path class="ag" d="M333.3,291.22s-12.39,54.38-38.12,58.08l53.49-11.2Z"/><path class="ag" d="M345.5,286.3s-10.05-11,3.12-25.64l5.39,2.56s-12.09,1.56-8.51,23.08"/><path class="ag" d="M327.7,251.36c3.13-.75,6.31,14.47-47.76-.66,6.09-3.61,8.34-3.64,13.21-5.25.35-.85,5,13.15,34.55,5.91"/><path class="ah" d="M250.07,300.4l-.4-.15c-.2-.07-.18-.09-.3,0s-.32.24-.36.35-.07.07,0,.09l.2.08.29.11.78.32,1.34.59.38.18.19.09c.07.06.12.06.14,0s.26-.24.36-.33l.11-.1-.11-.06a1.8,1.8,0,0,0-.26-.13l-.65-.33c.94-.88,1.87-1.74,2.9-2.69-.49-.12-1-.25-1.48-.33-.27,0-.54-.08-.8-.15a2.06,2.06,0,0,0-.5-.07.61.61,0,0,0-.31.08c-.08,0-.26.18-.24.25s.52.18.66.22l.82.26-1.72,1.61-.17.16s-.16.2-.22.21a2.19,2.19,0,0,1-.39-.16l-.3-.12"/><path class="ah" d="M233.56,284.76l.47-.51q-1.91,1.92-3.74,3.84l1.3-1.34c.65-.67,1.36-1.35,2-2"/><path class="ah" d="M241.95,289.11a3.16,3.16,0,0,0-1.3,0l-1.78.22c-.91.79-1.79,1.57-2.66,2.38l1.4-.15c.43,0,.89,0,1.34-.11a7.79,7.79,0,0,0,1.68-.5,1.73,1.73,0,0,0,.59-.43,9.68,9.68,0,0,1,.79-.66c.45-.34.36-.59-.05-.75"/><path class="ah" d="M218.55,301.95c.37-.33.74-.64,1.13-.94l1.1-.85a19.55,19.55,0,0,1,1-2.11,19.22,19.22,0,0,1,1.69-2.39c.43-.55.88-1.07,1.33-1.59-3.32,3.72-6.41,7.4-9.26,10.95.28-.32.56-.64.85-.95.7-.75,1.42-1.46,2.17-2.12"/><path class="ah" d="M246.89,284.62c0-.1-.12-.21-.4-.2-.47,0-1,.09-1.5.15-.23,0-.52,0-.77.09s-.05,0-.15,0a.51.51,0,0,0-.1.08l-.22.2L242,286.55c.44,0,1-.1,1.43-.15a8.9,8.9,0,0,0,1.35-.18,3.11,3.11,0,0,0,1.81-1.1c.17-.18.35-.35.3-.49"/><path class="ah" d="M270.4,276.45,270,277c0,.07-.15.16-.11.22s.27.05.35.07l1.19.2a6.89,6.89,0,0,0,1.34.24,1.17,1.17,0,0,0,.85-.46,9.81,9.81,0,0,0,.7-1.16q1.42-2.53,2.78-5.3c.26-.53.53-1.06.77-1.6a1.65,1.65,0,0,0,.16-1.09c-.12-.36-.6-.37-1-.44s-1-.13-1.46-.18c-1,1.87-2,3.66-3,5.36-.49.83-1,1.63-1.49,2.41l-.76,1.16"/><path class="ah" d="M239.26,279.89s-.17,0-.44-.15a.25.25,0,0,1,0,.08,10.49,10.49,0,0,1-1.53,2.18c-.73.81-1.4,1.6-2.25,2.45l-5.36,5.34c-.93.92-1.87,1.88-2.78,2.87s-1.89,2.06-2.71,3.12a10.8,10.8,0,0,0-1.71,2.82,3.78,3.78,0,0,0-.24,1.06c0,.07,0,.13,0,.19s0,.17,0,.19.67-.37.92-.52a32.19,32.19,0,0,1,20.44-4.63,36,36,0,0,1,10.17,2.64,30,30,0,0,1,8.27,5.12,23,23,0,0,1,3.18,3.37,24.76,24.76,0,0,1,2.38,3.81c.31.6.59,1.21.85,1.83.66-.13,1.32-.21,2-.4a10,10,0,0,0,1.76-.78,5.52,5.52,0,0,0,1.66-1.29,12.12,12.12,0,0,0,1.19-1.86c.76-1.34,1.52-2.71,2.36-4.09s1.75-2.77,2.7-4.2,1.92-3,2.91-4.58c.48-.78,1-1.58,1.46-2.36s1.08-1.59,1.62-2.4c1-1.58,2.07-3.21,3.16-4.85s2.19-3.24,3.3-4.86,2.18-3.36,3.28-4.91c.26-.37.53-.72.79-1.08l.4-.53a1.49,1.49,0,0,0,.2-.27.13.13,0,0,0,0-.19.92.92,0,0,0-.06-.19,22.74,22.74,0,0,0-1.11-2.64,19,19,0,0,0-3-4.53,17.36,17.36,0,0,0-3.93-3.22,18.53,18.53,0,0,0-4.68-2.11,18.79,18.79,0,0,0-5.29-.67,25.36,25.36,0,0,0-5.77.77c-1,.23-2,.55-2.94.86s-2,.59-3,.93a54,54,0,0,0-6,2.69c-2.05,1-4.2,2.24-6.33,3.44l-3.3,1.89c-1.06.6-2.11,1.16-3.17,1.71l-3.4,1.77q-2.8,2.44-5.48,4.94a9.9,9.9,0,0,0-.55,1.25m2,13a39.55,39.55,0,0,0-4.71.32,32.87,32.87,0,0,0-4.61.88,33.48,33.48,0,0,0-4.45,1.54l-1,.45-1,.5c-.49.23-.07-.2.1-.4.68-.82,1.36-1.63,2.17-2.44a2.36,2.36,0,0,1,.58-.46,5.2,5.2,0,0,1,.81-.32l.68-.23c.13,0,.31-.08.45-.14l.1,0,.11-.12.17-.18,1.15-1.18c1.74-1.76,3.53-3.44,5.32-5.12a7,7,0,0,1-1.08.25c-.2,0,.05-.21.16-.33l1.27-1.33a2.12,2.12,0,0,1,.59-.53,4.7,4.7,0,0,1,1-.37c1.07-.3,2.14-.57,3.22-.81,2.1-.48,4.23-.87,6.35-1.21q1.59-.25,3.19-.46a6.61,6.61,0,0,1,2.41-.06,2.66,2.66,0,0,1,.68.36l.74.46c.22.14.51.26.28.52s-.54.57-.81.84c-.54.56-1,1.11-1.54,1.65a5.49,5.49,0,0,1-.76.77,6,6,0,0,1-1,.38,5.84,5.84,0,0,1-1.08.39c-.38.09-.77.15-1.16.21s-.9.13-1.36.16-.76,0-1.13.09-.56.24-.58.37.32.24.59.31c.7.19,1.4.41,2.13.63.29.09.74.19.69.4a1,1,0,0,1-.26.35l-.64.67c-.93,1-1.81,1.9-2.65,2.83a6.32,6.32,0,0,1-.58.62c-1.53-.12-3-.22-4.52-.22m17,0a1,1,0,0,0,.45.39c.12,0,.25,0,.37,0a.49.49,0,0,1,.22.15c.15.17.31.33.48.49.39.37.94.66,1.31,1-.17-.06-.35-.08-.51-.15a1.13,1.13,0,0,1-.36-.27,4.89,4.89,0,0,0-.89-.58,12,12,0,0,1-1.76-1c-.24-.19-.41-.39-.63-.59a4.32,4.32,0,0,0-.88-.49,5.46,5.46,0,0,1-.79-.49,5.94,5.94,0,0,0-.71-.55,4.53,4.53,0,0,0-.93-.16,1.89,1.89,0,0,1-.7-.31.66.66,0,0,1-.28-.4c0-.17.12-.31.15-.48s-.1-.23-.32-.3a1,1,0,0,1-.57-.35c-.17-.28.06-.61-.15-.87s-.88-.33-1.55-.34l-.78,0a4.56,4.56,0,0,1-.62,0c-.25-.05-.15-.24-.24-.35a13.65,13.65,0,0,0,1.7-.1c.5-.08.93-.28,1.44-.36a3.84,3.84,0,0,1,.69-.05,3.14,3.14,0,0,0,.81-.07l1.71-.35-.27.27,1,.11c-.35.24-.35.22-2.3.37.28.54.42,1.2,1.55,1.47.61.15,1.32.23,2,.37a16.89,16.89,0,0,1,1.94.5,2.35,2.35,0,0,1,.73.33,2,2,0,0,1,.44.54c.23.36.45.72.71,1.09a16.61,16.61,0,0,0,1.87,2.24,11.21,11.21,0,0,0,3,2.24l-.08.08c-.36-.15-.74-.27-1.08-.44s-.65-.34-1-.53a19.25,19.25,0,0,1-1.66-1.14,21.37,21.37,0,0,0-3.29-2.27,1,1,0,0,0-.42.89,1,1,0,0,0,.19.44m2-3.75a25.75,25.75,0,0,0-3-.8c-.53-.1-1.08-.17-1.63-.23s-.92-.06-1.13-.27-.35-.33,0-.45a4.8,4.8,0,0,1,1.25-.09c.72-.06,1.89-.4,2-.86,0-.27-.56-.17-.9-.14-.55,0-.9,0-1-.27.39-.08,1.09-.23,1.25-.48s0-.22-.14-.26a1.77,1.77,0,0,0-.75.09l.41-.48.19-.22s.25-.23.22-.26a2.81,2.81,0,0,0-.44,0l-.38,0-.38,0h-.22s.1-.11.11-.13c.54-.65,1.07-1.31,1.7-2,.31-.34.64-.7.94-1.06a1.47,1.47,0,0,1,.41-.45,1.18,1.18,0,0,1,.55-.06l1.55,0q1.79.06,3.53.25c.58.06,1.15.13,1.73.21l.85.13c.14,0,.32,0,.37.15s-.06.23-.13.33l-.46.62-.92,1.22-.91,1.18c-.15.19-.33.55-.73.52-.2,0-.34-.13-.56-.07a.81.81,0,0,0-.43.38c-.33.42-.66.84-1,1.24-.66.8-1.31,1.56-2,2.3m-4,5.29c.2.1.64.21.65.38s-.32.38-.46.52l-.35.35a.75.75,0,0,1-.24.2.61.61,0,0,1-.48-.07c-.4-.17-.77-.37-1.17-.53a23.38,23.38,0,0,0-2.46-.79c-.92-.26-1.86-.49-2.81-.69a25.42,25.42,0,0,0-2.67-.4c.36-.36.71-.72,1.09-1.08s1.32-.05,1.76,0l2.13-2.13a7.25,7.25,0,0,1,.83.38,5.61,5.61,0,0,1,.83.48c.18.14.19.31.28.47a1.33,1.33,0,0,0,.51.48,15.22,15.22,0,0,0,2,.81c.32.13.65.25.95.4.14.07.12,0,.08.13s-.12.12-.17.17l-.35.34c-.06.06-.37.28-.35.34s.34.17.42.21m26.34-4.76-.07.13c-.41.73-.9,1.41-1.35,2.07a5.85,5.85,0,0,1-1.41,1.7,14.76,14.76,0,0,1-1.93.88c-.69.29-1.38.57-2.08.85-1.56.61-3.13,1.21-4.71,1.76-.81.28-1.63.55-2.44.81s-1.56.47-2.3.76a33.1,33.1,0,0,1,2.71,2.28,1.12,1.12,0,0,0,.15.14,1,1,0,0,0,.15-.11l.29-.21.61-.46c.13-.1.24-.19.41-.08a4.5,4.5,0,0,1,.61.59q.65.63,1.26,1.28c.37.4.71.84,1.09,1.21.14.14.26.24.24.45a1.83,1.83,0,0,1-.22.6c-.24.5-.48,1-.73,1.47-.54,1.05-1.08,2.08-1.69,3-.4-.71-.78-1.44-1.24-2.13a23.76,23.76,0,0,0-1.48-2A24.3,24.3,0,0,0,264.9,301a35.58,35.58,0,0,0-4.47-3.06c-.79-.46-1.6-.88-2.43-1.29a3.19,3.19,0,0,1-.52-.25c-.07-.05-.05,0,0-.07s.07-.06.09-.09l.21-.2a7.8,7.8,0,0,1,.7-.68c.27-.19.69,0,1,0l1.59.34c.4.08.53,0,.6-.23a3.89,3.89,0,0,1,.16-.49l.09-.23c0-.12.06-.13.25-.16a8.68,8.68,0,0,0,3.57,1.68,9.7,9.7,0,0,0,2,.08,4.11,4.11,0,0,0,1.86-.41,9,9,0,0,1-6.39-2.79,93.73,93.73,0,0,0,10.3-4,9.7,9.7,0,0,0-2.18-1.38l-.79,1a35.79,35.79,0,0,0-4.4-1.84,1.52,1.52,0,0,1-.31-.11c-.11-.07-.11,0,0-.14l.29-.36.7-.86c.47-.58.92-1.18,1.38-1.79l.68-.94a4.53,4.53,0,0,1,.62-.85.58.58,0,0,1,.61-.07c.41.11.81.25,1.21.38a29.85,29.85,0,0,1,4.4,1.83,23.93,23.93,0,0,1,3.92,2.53q.91.72,1.75,1.52c.25.23.49.47.73.72l.31.34a1.13,1.13,0,0,1,.19.22c.08,0,.08.09,0,.16m2.92-24.8a16.05,16.05,0,0,1,7.83,7.29q.17.33.32.67a1.11,1.11,0,0,1,.15.47.76.76,0,0,1-.17.45c-.14.22-.3.42-.44.65a13.16,13.16,0,0,1-.8,1.25,2.84,2.84,0,0,1-.84.69c-.72.4-1.48.71-2.24,1.1s-1.57.8-2.38,1.23-1.79,1-2.69,1.49a26.83,26.83,0,0,0-2.69,1.61,22.91,22.91,0,0,1,1.84,1.45l.45-.84c.44.39.87.79,1.28,1.22l.6.64c.11.12.09.08,0,.23a1.38,1.38,0,0,1-.12.22l-.27.49q-1,1.85-2,3.57a24.62,24.62,0,0,0-6.09-4.91c-.54-.32-1.11-.62-1.68-.9l-.48-.23a1.07,1.07,0,0,1-.19-.09,1.87,1.87,0,0,1,.12-.19l.57-1a18.94,18.94,0,0,1,1.06-1.78,1.79,1.79,0,0,1,.67-.49l.94-.51c1.29-.72,2.56-1.46,3.82-2.17s2.43-1.29,3.62-1.9l1.83-.93c.32-.17.78-.61.53-1.1-.13-.25-.42-.4-.61-.56s-.5-.4-.76-.59-.51-.47-.67-.33a2.17,2.17,0,0,0-.24.43l-.27.5-.12.21-.12.22-.08-.05a2,2,0,0,1-.42-.26l-.92-.52-.5-.26c-.08,0-.44-.14-.47-.23s.22-.49.26-.6l.26-.59q1.07-2.49,2.11-5.07m-13.3-1c.12-.19,0-.08.16-.14l.15,0c.15,0,.29-.06.44-.08.55-.09,1.1-.17,1.64-.23a28.94,28.94,0,0,1,6.21,0,3.63,3.63,0,0,1,1.32.26,2.76,2.76,0,0,1,1.07,2.1,4.73,4.73,0,0,1-.35,1.25,61.2,61.2,0,0,1-3,6.43q-.84,1.55-1.69,3a31.38,31.38,0,0,1-1.63,2.68,6,6,0,0,1-2.62,1.49l-1.57.63a1.25,1.25,0,0,1-.62.14,6,6,0,0,1-.78-.21,38.93,38.93,0,0,0-6.31-1.15c-.5-.05-1.07-.05-1.54-.13s0-.39.14-.62q.44-.58.87-1.18l.42-.61a1.17,1.17,0,0,1,.33-.37,1.76,1.76,0,0,1,1-.14c1.18-1.68,2.3-3.48,3.41-5.39q.82-1.44,1.63-3c.15-.27.45-.71.18-.82s-.58,0-.52-.33a2.33,2.33,0,0,1,.27-.57c.13-.25.26-.5.38-.75q.38-.76.74-1.54a6.34,6.34,0,0,1,.34-.74m-8.77,2.82a1.27,1.27,0,0,1,.88-.68c1.18-.43,2.35-.83,3.52-1.18.58-.18,1.16-.34,1.74-.5a6.2,6.2,0,0,1,1.43-.31c-.44.9-.9,1.79-1.35,2.65a6.92,6.92,0,0,1-.59,1.1c-.24.31-.48.27-.79.43a1.54,1.54,0,0,0-.6.78l-.69,1.24q-.67,1.17-1.36,2.29c-.92,1.49-1.89,2.89-2.79,4.22a.82.82,0,0,0-.12.18c0,.1,0,.07.15.07a2,2,0,0,1,.51,0s-.3.43-.36.5l-.39.54-.69.94-.31.4-.19.24-.12.16c0,.08-.08.1-.18.08a5.89,5.89,0,0,1-.71,0h-.83l-1.56,0c-1.05,0-2.11.11-3.18.21.49-.58,1-1.18,1.48-1.8a2.69,2.69,0,0,1,.36-.46c.13-.11.07-.08.28-.13a2.84,2.84,0,0,0,.32-.08c.13-.07.3-.38.37-.46l.43-.55q1.52-2,3-4.24c.48-.73,1-1.49,1.42-2.26.08-.13.22-.34.14-.4s-.42,0-.61.09a1.77,1.77,0,0,1-.25.06c-.13,0-.1,0,0-.14s.21-.37.32-.56l.71-1.27c.22-.4.43-.8.65-1.2m-23,14.87.25-.08,1.35-.4c.41-.57.85-1.15,1.18-1.71s.63-1.11.88-1.65a2.26,2.26,0,0,0,.2-.7c0-.13.26-.51-.27-.3a6.21,6.21,0,0,1-.89.38c-.05,0,0-.09.05-.14l.26-.39c.18-.29.35-.57.51-.85a1,1,0,0,1,.4-.54,4,4,0,0,1,.42-.23l1.1-.52,2.11-1,2.12-1,1-.49c.12-.06.44-.23.53-.25s.06,0,0,.06l-.06.15a8.24,8.24,0,0,1-.44,1c-.1.17-.2.34-.27.5s0,.24-.2.41a2.38,2.38,0,0,1-.59.37,6.3,6.3,0,0,0-.6.31c-.07.05-.07.18-.09.22l-.21.52c0,.12-.17.3.09.26a2.05,2.05,0,0,0,.72-.32l1-.64q1.1-.73,2.21-1.5c-.21.08-.53.21-.71.25s-.06,0-.06,0a.76.76,0,0,1,.07-.13l.14-.26c.19-.34.41-.7.62-1.06l.31-.53a2,2,0,0,1,.35-.55,2.33,2.33,0,0,1,.6-.38l1-.51c1.32-.65,2.6-1.24,3.89-1.83.64-.29,1.31-.61,1.92-.85.4-.15.49-.07.34.24-.52,1-1.15,2.06-1.6,3a5.58,5.58,0,0,0-2.24,1.34c-1.15.89-2.37,1.74-3.55,2.55-.6.41-1.21.82-1.81,1.21-.2.13-.43.28-.48.4s.13.2.21.27a13.38,13.38,0,0,1,1.15,1.2l.3.34a1,1,0,0,0,.34.32,1.82,1.82,0,0,0,.72,0l1-.15c-.31.39-.63.77-1,1.15l-.49.54a3.32,3.32,0,0,1-.47.51,1,1,0,0,1-.42.16c-.34.06-.68.08-1,.13l-2,.28-2,.34-1,.17a2.76,2.76,0,0,1-.66.1c-.1,0,.07-.18.16-.26l.46-.49a9.54,9.54,0,0,0,.87-1c.1-.15,0-.23-.09-.32l-.21-.31-.46-.61-1,1.17-.22.26-.12.14c-.08.09-.07.07,0,.06s.41-.09.57-.13l.59-.13-1.18,1.26-.28.3-.17.18a.34.34,0,0,1-.18.13c-.15.05-.5.11-.64.14l-.71.16c-1.79.4-3.57.85-5.33,1.35L240.1,282l.24-.26a1.08,1.08,0,0,1,.15-.16l0-.05"/><path class="ah" d="M244.52,298.58c0,.29.19.56.58.76a4.15,4.15,0,0,0,.76.27,5.78,5.78,0,0,0,.85.23,3.06,3.06,0,0,0,1.61-.29,2.71,2.71,0,0,0,1.83-1.95c.05-.58-.65-1.06-1.62-1.27a4.1,4.1,0,0,0-1.89.08,4,4,0,0,0-1.49,1c.14,0,0,.07,0,.13l-.11.11a2,2,0,0,0-.26.3,1.21,1.21,0,0,0-.22.57m1.28-.2a3.76,3.76,0,0,1,.67-.7l.19-.19,0,0a2,2,0,0,1,.33-.27l0,0,.06,0,.18-.08h0a3,3,0,0,1,.36-.15l.18,0,.08,0,.09,0h.07l.1,0,.21.06.14.05.06,0,.1.06.1.05,0,0,.07.08a.4.4,0,0,1,.06.09.26.26,0,0,1,0,.05c.08.34-.45.71-.73,1l.06,0a3.3,3.3,0,0,0-.39.39l0,0-.08.09-.08.07-.05,0-.1,0,0,0,0,0-.12,0-.12,0-.15,0-.12,0-.29,0A1,1,0,0,1,246,299l-.05,0-.07-.06s0-.06-.05-.09a.49.49,0,0,1-.06-.1.39.39,0,0,1,0-.23v0s0-.06,0-.09"/><path class="ah" d="M225.31,301.95l.26,0,.59.1,1.16.18c.81.13,1.69.24,2.67.34s2.1.31,3.2.53,2.25.45,3.42.75c2.39.59,4.85,1.41,7.52,2.18s5,1.7,7.61,2.44c1.46.42,2.93.7,4.36,1.07s2.87.72,4.27,1.09a19,19,0,0,0-2.09-2.57,28.68,28.68,0,0,0-2.69-2.54,26.81,26.81,0,0,0-6.37-3.89,33.12,33.12,0,0,0-3.69-1.38,28.5,28.5,0,0,0-3.8-.84,27.34,27.34,0,0,0-16.5,2.38c-.08.09-.07.06,0,.09l.1,0"/><path class="ah" d="M354,263c-15.1-7.31-26.56-12-26.56-12-30,14.69-34.38-6.05-34.38-6.05-17.05,5.81-32.5,15.84-45.88,27.19l6.19-3.5c3.19-1.81,6.37-3.66,9.47-5.31a58.85,58.85,0,0,1,9-4,27.19,27.19,0,0,1,8.54-1.62,17.82,17.82,0,0,1,7.65,1.65,18.91,18.91,0,0,1,6.1,4.51,19.91,19.91,0,0,1,4,7.05c.25.73.48,1.49.69,2.28a2.87,2.87,0,0,1-.07,1.81,1.15,1.15,0,0,1-.4.48c-.19.18-.39.39-.59.61-.37.42-.73.9-1.09,1.4-1.55,2.16-3.1,4.59-4.65,6.87-.8,1.17-1.58,2.36-2.35,3.55s-1.62,2.39-2.4,3.59c-1.57,2.39-3.12,4.67-4.53,6.91s-2.83,4.35-4.15,6.38c-.65,1-1.26,2-1.86,3l-.91,1.5a10.2,10.2,0,0,1-.89,1.34,13.59,13.59,0,0,1-2.26,1.95c.61,1.66,1.24,3.23,1.77,4.73l.19.56c0,.12.07.14,0,.25a.89.89,0,0,1-.2.17.87.87,0,0,1-.76,0,7.06,7.06,0,0,1-1.53-.73c-.28-.18-.56-.37-.84-.58a3.83,3.83,0,0,0-.8-.59c-.09.33-.18.65-.25,1a7.16,7.16,0,0,0-.06,1.15c0,.4,0,.8-.05,1.21a3.15,3.15,0,0,1-.16,1.06c-.11.24-.27.39-.45.35s-.3-.38-.4-.64c-.26-.68-.58-1.34-.92-2a1.38,1.38,0,0,0-.26-.42.46.46,0,0,0-.42,0l-1,.24-1,.26c-.22.06-.49.2-.71.08s-.33-.47-.46-.69-.36-.69-.54-1c-.35-.69-.72-1.38-1.09-2.07-.19-.35-.38-.7-.56-1.05s-.25-.69-.54-.87a2.54,2.54,0,0,0-.8-.23l-1.16-.28c-1.55-.39-3.12-.85-4.74-1.28s-3.25-.83-4.88-1.38-3.27-1.16-4.92-1.68c-.83-.26-1.62-.56-2.42-.84s-1.65-.52-2.47-.75c-1.64-.46-3.17-1-4.7-1.3s-2.84-.66-4.17-.89-2.59-.4-3.75-.53-2.13-.25-3-.4a10.85,10.85,0,0,0-1.34-.19,1.87,1.87,0,0,0-.87.4c-.39.25-.78.51-1.16.78-.77.54-1.5,1.08-2.21,1.64q-.53.42-1,.86l-.47.39a3.44,3.44,0,0,1-.43.31c-.08,0-.08,0-.1-.09s0-.15-.05-.23l-.09-.45s0-.18-.06-.16-.11.09-.2.18l-.26.27q-.5.53-1,1.08c-.32.37-.63.74-.94,1.11l-.44.55-.2.26c-.06.07-.08.11-.1.12s0,0,0,0-.18-.06,0-.42.45-.76.68-1.13c.49-.77,1-1.53,1.61-2.28l.46-.6a1.21,1.21,0,0,0,.19-.26.09.09,0,0,0,0-.09c0-.08-.15,0-.29.07l-.46.32q-.34.22-.69.48l-.7.54-.15.13c-.09.07-.07,0,0-.08s.12-.26.21-.41A256.74,256.74,0,0,0,193.39,337c10.27,39,155.56,1.35,155.56,1.35l-18.47-55,14.41,2.1C339.25,266,354,263,354,263"/><path class="ah" d="M239.46,298.37l.36,0c.48.05,1,.12,1.43.19l1.37.24c.19,0,.17,0,.25-.08l.14-.16.17-.18c.09-.1,0-.09-.16-.12l-.59-.11a1.69,1.69,0,0,1-.28,0s.16-.19.19-.22l.66-.76c.5-.57,1-1.14,1.51-1.7a11.16,11.16,0,0,0-1.43-.07,5.36,5.36,0,0,0-1.34.18c-.32.12-.38.3,0,.33s.85,0,1.27.06q-1,1-1.88,2c-.44-.06-1.37-.27-1.73.09-.06.06-.14.16-.13.22s0,0,0,0a1.25,1.25,0,0,0,.2,0"/><path class="ai" d="M237.85,279.3l.86.39.09-.08c-.12-.17-.52-.25-.94-.31"/><path class="ai" d="M238.79,279.61l1-1a10.66,10.66,0,0,0,.65-1.47s-1.71,1.23-2.82,2l.2.09c.43.06.83.14.94.31"/><path class="ai" d="M237.56,279.25l-.32-.05a2.63,2.63,0,0,1,0,.33l.15-.11.22-.17"/><path class="ai" d="M237.19,279.53h0l.15-.12-.15.11"/><path class="ai" d="M237.85,279.3l-.27,0-.23.17-.15.12a2.9,2.9,0,0,1-.08.35,10.19,10.19,0,0,1-1.93,3.05c-.36.42-.74.86-1.14,1.3q2.28-2.29,4.67-4.56l-.86-.39"/><path class="ai" d="M236.86,279.76l.33-.22h0l-.33.23"/><path class="ai" d="M227.6,290.91c-1,1-1.89,2.07-2.82,3.16q2.65-3,5.51-6c-.87.91-1.76,1.83-2.69,2.82"/><path class="ai" d="M236.86,279.76l-.18.1s.07,0,.18-.1"/><path class="ai" d="M215.32,305.24a9.54,9.54,0,0,0-.84,1.06l0,.07,1.09-1.36-.21.23"/><path class="aj" d="M237.62,279.2l-.07.06h0l.07-.05h0"/><path class="ai" d="M238.79,279.61l-.09.08.11,0a.18.18,0,0,0,0-.13"/><path class="aj" d="M214.24,306.86l.15-.13.7-.54q.35-.26.69-.48l.46-.32c.14-.09.27-.14.29-.07a.09.09,0,0,1,0,.09,1.19,1.19,0,0,1-.19.26l-.46.6c-.57.75-1.11,1.51-1.61,2.28-.23.36-.5.78-.68,1.13s-.05.35,0,.41,0,0,0,0,0,0,.1-.12l.2-.26.44-.55c.31-.38.62-.75.94-1.11s.65-.72,1-1.08l.26-.27a.83.83,0,0,1,.2-.18c.07,0,.05.11.06.16l.09.44c0,.08,0,.16.05.23s0,.12.1.09a3.44,3.44,0,0,0,.43-.31l.47-.39q.51-.44,1-.86c.71-.56,1.44-1.1,2.21-1.64.38-.27.76-.53,1.16-.78a1.87,1.87,0,0,1,.87-.4,10.86,10.86,0,0,1,1.34.19c.87.16,1.88.28,3,.4s2.43.3,3.75.53,2.7.55,4.17.89,3.07.84,4.7,1.3c.82.23,1.65.47,2.47.75s1.59.57,2.42.84c1.64.52,3.28,1.13,4.92,1.68s3.26.95,4.88,1.38,3.19.88,4.74,1.28l1.16.28a2.54,2.54,0,0,1,.8.23c.29.19.39.59.54.87s.37.7.56,1c.38.69.74,1.38,1.09,2.07.18.35.34.71.54,1s.24.57.46.69.49,0,.71-.08l1-.27,1-.24a.46.46,0,0,1,.42,0,1.38,1.38,0,0,1,.26.42,22,22,0,0,1,.92,2c.1.25.16.59.4.64s.34-.1.45-.35a3.15,3.15,0,0,0,.16-1.06c0-.4,0-.8.05-1.21a7.18,7.18,0,0,1,.06-1.15c.06-.34.15-.66.25-1a3.83,3.83,0,0,1,.8.59c.28.21.56.4.84.58a7.05,7.05,0,0,0,1.53.73.87.87,0,0,0,.76,0,.88.88,0,0,0,.2-.17c.1-.11.06-.13,0-.25l-.19-.55c-.53-1.5-1.16-3.07-1.77-4.73a13.59,13.59,0,0,0,2.26-1.95,10.11,10.11,0,0,0,.89-1.34l.91-1.5c.59-1,1.21-2,1.86-3,1.32-2,2.72-4.14,4.15-6.38s3-4.53,4.53-6.91c.78-1.2,1.6-2.37,2.4-3.59s1.55-2.38,2.35-3.55c1.55-2.28,3.1-4.71,4.65-6.87.36-.5.73-1,1.09-1.4.2-.22.39-.43.59-.61a1.15,1.15,0,0,0,.4-.48,2.87,2.87,0,0,0,.07-1.81q-.31-1.19-.69-2.28a19.91,19.91,0,0,0-4-7.05,18.91,18.91,0,0,0-6.1-4.51,17.82,17.82,0,0,0-7.65-1.65,27.19,27.19,0,0,0-8.54,1.62,58.84,58.84,0,0,0-9,4c-3.11,1.65-6.29,3.5-9.47,5.31l-6.19,3.5-1.87,1.61,3.4-1.77c1.05-.56,2.1-1.11,3.17-1.71l3.3-1.89c2.14-1.2,4.28-2.42,6.34-3.44a53.79,53.79,0,0,1,6-2.69c1-.35,2-.61,3-.93s2-.63,2.94-.86a25.36,25.36,0,0,1,5.77-.77,18.78,18.78,0,0,1,5.29.67,18.48,18.48,0,0,1,4.68,2.11,17.34,17.34,0,0,1,3.93,3.22,18.94,18.94,0,0,1,3,4.53,22.92,22.92,0,0,1,1.11,2.64,1,1,0,0,1,.06.19.13.13,0,0,1,0,.19,1.49,1.49,0,0,1-.2.27l-.4.53c-.27.35-.53.71-.79,1.08-1.1,1.55-2.18,3.3-3.28,4.91s-2.23,3.21-3.3,4.86-2.11,3.27-3.16,4.85c-.54.82-1.1,1.6-1.62,2.4s-1,1.58-1.46,2.36c-1,1.59-1.95,3.12-2.9,4.58s-1.86,2.81-2.7,4.2-1.6,2.76-2.36,4.09a12.12,12.12,0,0,1-1.19,1.86,5.5,5.5,0,0,1-1.66,1.29,10,10,0,0,1-1.76.78c-.64.19-1.3.27-2,.4-.26-.62-.54-1.22-.85-1.83a24.76,24.76,0,0,0-2.39-3.81,23,23,0,0,0-3.18-3.37,30,30,0,0,0-8.27-5.12,36,36,0,0,0-10.17-2.64,32.19,32.19,0,0,0-20.44,4.63c-.25.16-.81.56-.92.52s0-.13,0-.19,0-.13,0-.19a3.79,3.79,0,0,1,.24-1.06,10.79,10.79,0,0,1,1.71-2.82c.82-1.05,1.78-2.11,2.71-3.12s1.84-1.94,2.78-2.87l5.36-5.34c.85-.85,1.52-1.63,2.25-2.45a10.53,10.53,0,0,0,1.53-2.18.24.24,0,0,0,0-.08l-.11,0q-2.39,2.27-4.67,4.56l-.47.52c-.61.64-1.32,1.32-2,2l-1.3,1.34q-2.85,3-5.5,6c-.45.53-.9,1-1.33,1.59a19.33,19.33,0,0,0-1.69,2.39,20.16,20.16,0,0,0-1,2.11l-1.1.85c-.38.31-.76.62-1.13.94-.75.66-1.48,1.37-2.17,2.12-.29.31-.57.63-.85.95l-1.09,1.36c-.09.15-.15.28-.21.41s-.08.15,0,.08M251,300.46l.17-.16,1.72-1.61-.82-.26c-.14,0-.65-.15-.66-.22s.16-.2.24-.25a.61.61,0,0,1,.31-.08,2.06,2.06,0,0,1,.5.08c.26.06.53.1.8.15.5.09,1,.21,1.48.33-1,.94-2,1.81-2.9,2.69l.65.33a1.8,1.8,0,0,1,.26.13l.11.06-.11.1c-.1.09-.21.27-.36.33s-.07.06-.14,0L252,302l-.38-.18-1.34-.59-.78-.32-.29-.11-.2-.08c-.12,0-.13,0,0-.09s.25-.25.36-.35.1-.1.3,0l.4.15.3.12a2.15,2.15,0,0,0,.39.16c.06,0,.19-.18.22-.21m-5.87-2.86c.07-.07.16-.1,0-.13a4,4,0,0,1,1.49-1,4.08,4.08,0,0,1,1.89-.08c1,.21,1.67.69,1.62,1.27a2.71,2.71,0,0,1-1.83,1.95,3.06,3.06,0,0,1-1.61.29,5.78,5.78,0,0,1-.85-.23,4.06,4.06,0,0,1-.76-.27c-.39-.2-.6-.47-.58-.76a1.19,1.19,0,0,1,.22-.57,2,2,0,0,1,.26-.3l.11-.11m-5.89.71c0-.06.07-.16.13-.22.37-.36,1.29-.16,1.73-.09.61-.69,1.24-1.37,1.88-2-.42,0-.87,0-1.27-.06s-.27-.21,0-.33a5.36,5.36,0,0,1,1.34-.18,11.16,11.16,0,0,1,1.43.07c-.51.56-1,1.13-1.51,1.7l-.66.76s-.21.19-.19.22a1.69,1.69,0,0,0,.28,0l.59.11c.18,0,.25,0,.16.12l-.17.18-.14.16c-.08.09-.06.11-.25.08l-1.37-.24c-.48-.07-1-.14-1.43-.19l-.36,0a1.25,1.25,0,0,1-.2,0c-.07,0,0,0,0,0m-14,3.53a27.34,27.34,0,0,1,16.5-2.38,28.39,28.39,0,0,1,3.8.84,33.12,33.12,0,0,1,3.69,1.38,26.81,26.81,0,0,1,6.37,3.89,28.8,28.8,0,0,1,2.69,2.54,18.85,18.85,0,0,1,2.09,2.57c-1.4-.37-2.81-.72-4.27-1.09s-2.9-.65-4.36-1.06c-2.58-.74-5.07-1.71-7.61-2.44s-5.13-1.59-7.52-2.18c-1.18-.29-2.34-.52-3.42-.75s-2.16-.42-3.2-.54-1.86-.21-2.67-.34l-1.16-.18-.59-.1-.26,0-.1,0s-.06,0,0-.09"/><rect class="a" x="211.47" y="261.03" width="89.46" height="61.58" transform="translate(-36.5 36.62) rotate(-7.63)"/><path class="ai" d="M248.2,298.34c.28-.28.81-.64.73-1,.06.33-.45.71-.73,1"/><path class="ai" d="M247.84,298.78l0,0a3.23,3.23,0,0,1,.39-.39,4.42,4.42,0,0,0-.33.31l-.08.1"/><path class="ai" d="M247,297.18a2,2,0,0,0-.33.27l0,0,.18-.17a1.05,1.05,0,0,1,.18-.14"/><path class="ai" d="M245.78,298.47v0"/><path class="ai" d="M247.11,297.12l-.06,0,.24-.12-.18.08"/><path class="ai" d="M247.66,296.89l.18,0-.18,0"/><path class="ai" d="M248.38,296.93l.14.05-.14-.05"/><path class="ai" d="M248.77,297.12l-.1-.05.12.07,0,0"/><path class="ai" d="M247.51,299l0,0-.06,0,0,0"/><path class="ai" d="M247.76,298.87l-.08.07.08-.07"/><path class="ai" d="M248.86,297.22a.33.33,0,0,1,.06.09.36.36,0,0,0-.06-.09"/><path class="ai" d="M246,299l-.05,0,.05,0"/><path class="ai" d="M247.07,299.19l-.12,0,.12,0"/><path class="ai" d="M245.85,298.84a.47.47,0,0,1-.06-.1.45.45,0,0,0,.06.1"/><path class="ai" d="M248.07,296.85H248l.17,0-.1,0"/><path class="ai" d="M247.34,299.1l-.12,0,.12,0"/><path class="ai" d="M249.05,289.64l.64-.67a1,1,0,0,0,.26-.35c.05-.21-.4-.31-.69-.4-.72-.22-1.43-.44-2.13-.63-.28-.08-.62-.13-.59-.31s.21-.31.58-.37.78-.07,1.13-.09.89-.09,1.36-.16.77-.12,1.16-.21a5.89,5.89,0,0,0,1.08-.39,6,6,0,0,0,1-.38,5.52,5.52,0,0,0,.76-.77c.51-.53,1-1.08,1.54-1.65.27-.28.56-.56.81-.84s-.07-.38-.28-.52l-.74-.46a2.66,2.66,0,0,0-.68-.36,6.61,6.61,0,0,0-2.41.06q-1.6.2-3.19.45c-2.12.33-4.24.73-6.35,1.21-1.07.24-2.15.51-3.22.81a4.69,4.69,0,0,0-1,.37,2.15,2.15,0,0,0-.59.53l-1.27,1.34c-.11.12-.36.32-.16.33a7,7,0,0,0,1.08-.25c-1.79,1.68-3.58,3.36-5.32,5.12l-1.15,1.18-.17.18-.11.12-.1,0c-.14.06-.32.1-.45.14l-.68.23a5.3,5.3,0,0,0-.81.31,2.37,2.37,0,0,0-.58.47c-.81.81-1.49,1.61-2.17,2.44-.17.2-.58.63-.1.4l1-.5,1-.45a33.48,33.48,0,0,1,4.45-1.54,33,33,0,0,1,4.61-.88,39.77,39.77,0,0,1,4.71-.32c1.51,0,3,.1,4.52.22a6.32,6.32,0,0,0,.58-.62c.83-.94,1.72-1.87,2.65-2.83m-7.05.22a9.74,9.74,0,0,0-.79.66,1.75,1.75,0,0,1-.59.43,7.8,7.8,0,0,1-1.68.5c-.46.06-.91.07-1.34.11l-1.4.15c.87-.81,1.75-1.59,2.66-2.39l1.78-.22a3.16,3.16,0,0,1,1.3,0c.42.16.5.41.05.75m2.78-3.64a8.64,8.64,0,0,1-1.35.18c-.47,0-1,.12-1.43.15l1.76-1.57.22-.2a.45.45,0,0,1,.09-.09c.1,0,0,0,.15,0s.53-.06.77-.09c.49-.05,1-.12,1.49-.15.28,0,.37.1.4.2s-.13.32-.3.49a3.12,3.12,0,0,1-1.81,1.1"/><rect class="a" x="224.36" y="282.71" width="32.43" height="11.81" transform="translate(-36.21 34.52) rotate(-7.63)"/><path class="ai" d="M282.45,289.24l-.31-.34c-.23-.25-.48-.49-.73-.72q-.84-.8-1.75-1.53a23.93,23.93,0,0,0-3.92-2.53,29.9,29.9,0,0,0-4.4-1.83c-.4-.13-.8-.27-1.21-.38a.58.58,0,0,0-.61.07,4.52,4.52,0,0,0-.62.85l-.68.94q-.69.92-1.38,1.79l-.7.86-.29.36c-.09.11-.09.06,0,.14a1.58,1.58,0,0,0,.31.11,35.9,35.9,0,0,1,4.4,1.84l.79-1a9.68,9.68,0,0,1,2.18,1.38,93.79,93.79,0,0,1-10.3,4,9,9,0,0,0,6.39,2.79,4.09,4.09,0,0,1-1.86.41,9.62,9.62,0,0,1-2-.08,8.68,8.68,0,0,1-3.57-1.68c-.19,0-.2,0-.25.17l-.09.23a3.81,3.81,0,0,0-.16.49c-.07.26-.2.31-.6.23l-1.59-.34c-.34-.07-.77-.23-1,0a7.58,7.58,0,0,0-.7.68l-.22.2s-.09.06-.09.09,0,0,0,.07a3.23,3.23,0,0,0,.52.25c.83.4,1.64.83,2.43,1.29A35.58,35.58,0,0,1,264.9,301a28.37,28.37,0,0,1,5.12,5.66c.46.69.84,1.42,1.24,2.13.61-1,1.15-2,1.69-3,.24-.48.49-1,.73-1.47a1.82,1.82,0,0,0,.22-.6c0-.21-.1-.31-.24-.45-.38-.38-.72-.82-1.09-1.21s-.83-.86-1.26-1.28a4.5,4.5,0,0,0-.61-.59c-.18-.11-.29,0-.41.08l-.61.46-.29.21a1.13,1.13,0,0,1-.15.11,1.08,1.08,0,0,1-.15-.14,33.27,33.27,0,0,0-2.71-2.28c.73-.28,1.53-.51,2.3-.76s1.63-.53,2.44-.81c1.59-.55,3.15-1.15,4.71-1.76.7-.28,1.39-.56,2.08-.85a14.91,14.91,0,0,0,1.93-.88,5.85,5.85,0,0,0,1.41-1.7c.46-.66.94-1.33,1.35-2.07l.07-.13c.07-.07.06-.12,0-.16a1.18,1.18,0,0,0-.19-.22"/><path class="ak" d="M240.1,282l-1.05,1.14c1.76-.5,3.54-1,5.33-1.35l.71-.16c.14,0,.49-.08.64-.14a.34.34,0,0,0,.18-.13l.17-.18.28-.3,1.18-1.26-.59.13c-.16,0-.44.12-.57.13s-.12,0,0-.06l.12-.14.22-.26,1-1.17.46.61.21.31c.06.09.2.17.09.32a9.53,9.53,0,0,1-.87,1l-.46.49c-.08.08-.26.23-.16.26a2.76,2.76,0,0,0,.66-.1l1-.17,2-.34,2-.28c.33,0,.66-.07,1-.13A1,1,0,0,0,254,280a3.32,3.32,0,0,0,.47-.51l.49-.54c.34-.38.66-.76,1-1.15l-1,.15a1.82,1.82,0,0,1-.72,0,1,1,0,0,1-.34-.32l-.3-.34a13.38,13.38,0,0,0-1.15-1.2c-.08-.07-.27-.14-.21-.27s.28-.26.48-.4c.61-.39,1.21-.8,1.81-1.21,1.17-.81,2.39-1.65,3.55-2.55a5.58,5.58,0,0,1,2.24-1.34c.44-.93,1.08-2,1.6-3,.15-.3.07-.39-.34-.24-.62.23-1.28.55-1.92.85-1.29.59-2.58,1.18-3.89,1.83l-1,.51a2.33,2.33,0,0,0-.6.38,2,2,0,0,0-.35.55l-.31.53c-.21.36-.42.72-.62,1.06l-.14.26a.76.76,0,0,0-.07.13c0,.06-.09.06.06,0s.5-.18.71-.25q-1.1.77-2.21,1.5l-1,.64a2.05,2.05,0,0,1-.72.32c-.25,0-.13-.14-.09-.26l.21-.52s0-.17.09-.22a6.29,6.29,0,0,1,.6-.31,2.38,2.38,0,0,0,.59-.37c.16-.16.14-.28.2-.41s.18-.33.27-.5a8.24,8.24,0,0,0,.44-1l.06-.15c0-.06,0-.08,0-.06s-.41.19-.53.25l-1,.49-2.12,1-2.11,1-1.1.52a4,4,0,0,0-.42.23,1,1,0,0,0-.4.54c-.16.28-.32.56-.51.85l-.26.39s-.1.13-.05.14a6.21,6.21,0,0,0,.89-.38c.53-.21.28.17.27.3a2.26,2.26,0,0,1-.2.7c-.25.54-.55,1.09-.88,1.65s-.78,1.14-1.18,1.71l-1.35.4-.25.08,0,.05a1.08,1.08,0,0,0-.15.16l-.24.26"/><path class="al" d="M270.82,266.89a2.33,2.33,0,0,0-.27.57c-.06.34.29.23.52.33s0,.54-.18.82q-.81,1.52-1.63,3c-1.1,1.91-2.23,3.71-3.41,5.39a1.76,1.76,0,0,0-1,.14,1.16,1.16,0,0,0-.33.37l-.42.61q-.43.6-.87,1.18c-.17.23-.54.55-.14.62s1,.08,1.54.13a38.9,38.9,0,0,1,6.31,1.15,6,6,0,0,0,.78.21,1.25,1.25,0,0,0,.62-.14l1.57-.63a6,6,0,0,0,2.62-1.49,31.15,31.15,0,0,0,1.63-2.68q.85-1.47,1.69-3a61,61,0,0,0,3-6.43,4.74,4.74,0,0,0,.35-1.25,2.76,2.76,0,0,0-1.07-2.1,3.64,3.64,0,0,0-1.32-.26,28.92,28.92,0,0,0-6.21,0c-.54.06-1.09.14-1.64.23-.15,0-.29,0-.44.08l-.15,0c-.15.07,0,0-.16.14a6.34,6.34,0,0,0-.34.74q-.36.78-.74,1.54c-.13.25-.25.5-.38.75m4.82.62c.49.05,1,.1,1.46.18s.85.07,1,.44a1.65,1.65,0,0,1-.16,1.09c-.24.54-.51,1.07-.77,1.6-.91,1.84-1.84,3.62-2.78,5.3a9.71,9.71,0,0,1-.7,1.16,1.17,1.17,0,0,1-.85.47,7.05,7.05,0,0,1-1.34-.24l-1.19-.2c-.09,0-.32,0-.35-.07s.06-.15.11-.22l.38-.57.76-1.16c.5-.78,1-1.59,1.49-2.41q1.52-2.56,3-5.36"/><path class="al" d="M283.21,270.49c0,.1-.29.51-.26.6s.39.19.47.23l.5.26.92.52a2,2,0,0,0,.42.26l.08.05.12-.22.12-.21.27-.5a2.22,2.22,0,0,1,.24-.43c.16-.14.54.23.67.33s.51.38.76.59.49.31.61.56c.24.49-.21.93-.53,1.1l-1.83.93c-1.18.6-2.4,1.21-3.62,1.9s-2.53,1.45-3.82,2.17l-.94.51a1.79,1.79,0,0,0-.67.49,18.94,18.94,0,0,0-1.06,1.78l-.57,1a1.87,1.87,0,0,0-.12.19,1.07,1.07,0,0,0,.19.09l.48.23c.57.28,1.13.58,1.68.9a24.62,24.62,0,0,1,6.09,4.91q1-1.72,2-3.57l.27-.49a1.38,1.38,0,0,0,.12-.22c0-.15.06-.11,0-.23l-.6-.64c-.41-.42-.84-.83-1.28-1.22l-.45.84a22.91,22.91,0,0,0-1.84-1.45,26.83,26.83,0,0,1,2.69-1.61c.9-.52,1.81-1,2.69-1.49s1.6-.84,2.38-1.23,1.52-.69,2.24-1.1a2.85,2.85,0,0,0,.84-.69,13.16,13.16,0,0,0,.8-1.25c.14-.23.3-.43.44-.65a.77.77,0,0,0,.17-.45,1.14,1.14,0,0,0-.15-.47c-.1-.23-.21-.46-.32-.67a16.05,16.05,0,0,0-7.83-7.29q-1,2.58-2.11,5.07l-.26.59"/><path class="am" d="M261.83,269.71c-.06.13-.1.15,0,.14a1.93,1.93,0,0,0,.25-.07c.19-.05.52-.17.61-.09s-.06.27-.14.4c-.45.77-.94,1.53-1.42,2.26q-1.48,2.25-3,4.24l-.43.55c-.07.08-.24.4-.36.46a2.47,2.47,0,0,1-.32.08c-.21,0-.15,0-.28.13a2.69,2.69,0,0,0-.36.46q-.74.93-1.48,1.8c1.07-.09,2.13-.16,3.18-.21l1.56,0h.83a5.89,5.89,0,0,0,.71,0c.1,0,.16,0,.18-.08l.12-.16.19-.24.31-.4.69-.94.39-.54c.06-.08.39-.45.36-.5a2.09,2.09,0,0,0-.51,0c-.16,0-.17,0-.15-.07a.82.82,0,0,1,.12-.18c.9-1.33,1.87-2.73,2.79-4.22q.68-1.11,1.36-2.29l.69-1.24a1.54,1.54,0,0,1,.6-.78c.31-.16.55-.12.79-.43a6.91,6.91,0,0,0,.59-1.1c.45-.86.9-1.75,1.35-2.65a6.26,6.26,0,0,0-1.43.31c-.58.15-1.16.32-1.74.5-1.17.35-2.34.75-3.52,1.18a1.27,1.27,0,0,0-.88.68c-.22.41-.43.8-.65,1.2l-.71,1.27c-.11.19-.23.39-.32.56"/><rect class="a" x="253.98" y="265.13" width="18.13" height="14.4" transform="translate(-33.85 37.36) rotate(-7.63)"/><path class="ai" d="M263.7,285.17c.22-.06.36.06.56.07.4,0,.58-.33.73-.52l.91-1.18.92-1.22.46-.62c.07-.1.18-.23.13-.33s-.23-.12-.36-.15l-.85-.13q-.86-.12-1.73-.21-1.74-.19-3.53-.25l-1.55,0a1.17,1.17,0,0,0-.55.06,1.45,1.45,0,0,0-.42.45c-.3.36-.62.71-.94,1.06-.63.69-1.15,1.35-1.7,2,0,0-.12.12-.11.13h.22l.38,0,.38,0a2.8,2.8,0,0,1,.44,0s-.19.22-.22.26l-.19.22-.41.48a1.78,1.78,0,0,1,.75-.09c.15,0,.21.16.14.26s-.86.39-1.25.48c.1.27.46.31,1,.27.34,0,.95-.13.9.14-.08.46-1.25.79-2,.86a4.84,4.84,0,0,0-1.25.09c-.39.13-.17.32,0,.45s.68.22,1.13.27,1.1.13,1.63.23a25.75,25.75,0,0,1,3,.8c.67-.74,1.32-1.51,2-2.3.34-.41.66-.82,1-1.24a.81.81,0,0,1,.43-.38"/><path class="ai" d="M258.55,291.52a21.32,21.32,0,0,1,3.3,2.27,19.07,19.07,0,0,0,1.66,1.14c.31.19.62.36,1,.53s.73.29,1.08.44l.08-.08a11.19,11.19,0,0,1-3-2.24,16.77,16.77,0,0,1-1.87-2.24c-.25-.36-.48-.73-.7-1.09a2,2,0,0,0-.44-.54,2.33,2.33,0,0,0-.73-.33,17.1,17.1,0,0,0-1.94-.51c-.64-.13-1.35-.22-2-.37-1.13-.28-1.28-.93-1.55-1.47,1.94-.15,1.94-.13,2.3-.37l-1-.11.27-.27-1.71.35a3.14,3.14,0,0,1-.81.07,3.75,3.75,0,0,0-.69.05c-.51.08-.94.28-1.44.36a13.64,13.64,0,0,1-1.7.1c.09.11,0,.29.24.35a4.53,4.53,0,0,0,.62,0l.78,0c.67,0,1.31,0,1.55.34s0,.59.15.87a1,1,0,0,0,.57.35c.23.07.35.15.32.3s-.18.31-.15.48a.66.66,0,0,0,.28.4,1.89,1.89,0,0,0,.7.31,4.54,4.54,0,0,1,.93.16,6,6,0,0,1,.71.55,5.33,5.33,0,0,0,.79.49,4.31,4.31,0,0,1,.88.49c.22.19.38.4.63.58a11.9,11.9,0,0,0,1.76,1,4.88,4.88,0,0,1,.89.58,1.12,1.12,0,0,0,.36.27c.16.06.35.09.51.15-.38-.38-.92-.68-1.31-1-.17-.16-.33-.33-.48-.49a.47.47,0,0,0-.22-.15c-.12,0-.25,0-.37,0a1,1,0,0,1-.45-.39.94.94,0,0,1-.19-.43,1,1,0,0,1,.42-.89"/><path class="ai" d="M256.25,293.83l.35-.34s.15-.12.17-.17.06-.06-.08-.13c-.29-.15-.63-.27-.95-.4a14.9,14.9,0,0,1-2-.81,1.33,1.33,0,0,1-.51-.48c-.08-.16-.1-.33-.28-.47a5.76,5.76,0,0,0-.83-.48,7.25,7.25,0,0,0-.83-.38l-2.13,2.13c-.44-.08-1.41-.35-1.76,0s-.74.72-1.09,1.08a25.45,25.45,0,0,1,2.67.4c.95.2,1.89.43,2.81.69a23.59,23.59,0,0,1,2.46.79c.4.16.77.36,1.17.53a.61.61,0,0,0,.48.07.75.75,0,0,0,.24-.2l.35-.35c.14-.14.48-.35.46-.52s-.46-.29-.65-.38-.4-.16-.42-.21.29-.28.35-.34"/><path class="ai" d="M247.22,299.15l-.15,0,.15,0"/><path class="ai" d="M245.79,298.73a.44.44,0,0,1,0-.23.39.39,0,0,0,0,.23"/><path class="ai" d="M248.17,296.88l.21.06-.21-.06"/><path class="ai" d="M247.47,299.06l-.12,0,.12,0"/><path class="ai" d="M247.66,296.89a2.89,2.89,0,0,0-.37.15h0l.23-.1.14,0"/><path class="ai" d="M246,299a1,1,0,0,0,.64.23l.29,0a1.18,1.18,0,0,1-.56,0A1.3,1.3,0,0,1,246,299"/><path class="ai" d="M247.91,296.83l-.08,0h.08"/><path class="ai" d="M245.9,298.93l.07.06a.59.59,0,0,1-.12-.15s0,.06.05.09"/><path class="ai" d="M246.65,297.49l-.19.19a3.79,3.79,0,0,0-.67.71s0,.06,0,.09a.66.66,0,0,1,.16-.27c.23-.24.47-.48.72-.71"/><path class="ai" d="M248.91,297.31a.37.37,0,0,1,0,.05v-.05"/><path class="ai" d="M247,297.18l0,0,0,0"/><path class="ai" d="M248.79,297.14l.07.08-.07-.08"/><path class="ai" d="M248.57,297l-.06,0,.16.08-.1-.06"/><path class="ai" d="M247.63,299l.05,0-.15.09.1,0"/><path class="ai" d="M247.84,298.78l-.08.09.08-.09"/><path class="aj" d="M245.79,298.73a.51.51,0,0,0,.06.1.59.59,0,0,0,.12.15l.05,0a1.3,1.3,0,0,0,.37.19,1.18,1.18,0,0,0,.56,0l.12,0,.15,0,.12,0,.12,0,.06,0,.15-.09.08-.07.08-.09.08-.1a4.27,4.27,0,0,1,.33-.32l-.06,0c.28-.27.79-.65.73-1a.35.35,0,0,0,0-.05.38.38,0,0,0-.06-.09l-.07-.08-.11-.07-.16-.08-.14-.05-.21-.06-.17,0h-.17l-.18,0-.14,0-.23.1-.24.12,0,0a1,1,0,0,0-.18.14l-.18.17c-.25.24-.49.47-.72.71a.65.65,0,0,0-.16.27s0,0,0,0a.44.44,0,0,0,0,.23"/><path class="v" d="M195.18,335.74s1.76,46.2,155.36.73c0,0-133.56,39-155.36-.73"/><path class="v" d="M292.41,236.62c.67-.7,5.5,2.62,11.36,1.49,5.91-.81,9.42-5.51,10.27-5.06,1.1.22-1.73,7.38-9.68,8.69s-12.92-4.55-12-5.12"/></svg>