<svg xmlns="http://www.w3.org/2000/svg" xmlns:xlink="http://www.w3.org/1999/xlink" viewBox="0 0 2427.22 2407.8"><defs><style>.a{fill:none;}.b{clip-path:url(#a);}.c{clip-path:url(#b);}.d{fill:#00002e;}.e{clip-path:url(#c);}.f{fill:url(#d);}</style><clipPath id="a"><rect class="a" x="329.83" y="307.65" width="1634.02" height="1558.27"/></clipPath><clipPath id="b"><rect class="a" x="474.98" y="800.72" width="1488.87" height="949.83"/></clipPath><clipPath id="c"><path class="a" d="M1323.48,1470.87l2.48.22-2.48-.22m13.27,0,2.47.22-2.47-.22m583.61,0,2.5.22h0l-2.48-.22m13.27,0,2.49.22h0l-2.48-.22M812.38,927.95a4.29,4.29,0,0,1-.4.63,4.29,4.29,0,0,0,.4-.63m.72-134.09C802,808.33,789.64,813.37,772.35,813c-32.64-.73-63.14,6.86-90,26.54-16.89,12.35-34.1,24.25-51.36,36-11.77,8.06-23.61,15.27-38.48,17.71C551.25,900,510.25,908,469.17,915.54v10c11,14.34,13.68,33.35,26.18,46.87,10.64,29.75,18.89,35.49,47.45,32.7,53.11-5.17,106.3-4.49,159.5-3.8,20,.26,40,.52,60,.46,8.26,0,13.54,4,17.21,10.73,22.25,41,43.85,82.45,66.84,123.06,21.14,37.36,36.19,78.73,87.89,89.76,25.29,5.4,55.71,18.29,56.11,55.09a3.25,3.25,0,0,0,.31,3.09c.54,2.32,1.11,4.64,1.67,7,4,18.09,6.94,36.46,12.29,54.11,3.08,10.18,3.29,23.22,12.16,29.67,13.18,9.6,26,20.63,42.28,25.26,41.88,27.84,84.71,50.85,134.85,19.69,13.46-8.36,20.85-3.14,30.5,6.26,23.52,22.9,46.4,46.88,76.64,61.53l3.86,1.85a3.42,3.42,0,0,0,2.68,1.06c.33,2.27,1.28,3.76,4,2.95l4.15,2.6,5.72,3.32q5,1.68,10,3.34a3.1,3.1,0,0,0,2.93.95h0c6.85,5.82,15.26,7.46,23.79,8.69,5.58,2.25,11.23,4.1,17.36,3.76l1,1.08,1-.91.32-.07,3.33.55c7.92,4.45,16.81,5.27,25.45,5.35,32.33.32,60.94,9.7,85.55,31.34,9,7.94,19.63,14.15,29.59,21,64.83,44.63,134.84,74.12,215.25,71.26,24.61-.86,47.93,1.57,70.43,12.54,26.33,12.86,55.93,18.08,81.07,33.9h43.11c6.78-8.12,18.25-10.11,26.48-17.78v-4.49c-35.42-3.62-69.21-8.41-102.35-17.49-47.56-13-90.8-34.55-127.71-66.94-12.76-11.2-20.92-12.62-32.48-.9-11.17,11.33-21.85,9.93-35.94,1.73-37.59-21.89-70.41-48.68-97.23-82.87-1.69-1.75-3.36-3.49-5-5.22-.42-6.06-.82-12.14-1.23-18.2-3.33-26.63-4.33-53.61-12.16-79.54,3.55-6.49.14-13-.69-19.19-1.68-12.38,1.32-13.88,12.62-9.51,31.14,12.06,62.68,23.08,94.06,34.48,36.19,12.93,72.21,26.35,108.64,38.62,41.11,13.86,81.41,30.16,123.54,41,4.36,1.19,8.7,2.41,13.07,3.61a3.15,3.15,0,0,0,2.95.95s0,0,0,0c3.63,4.55,9.41,2.85,13.95,4.74l3,.91c2.37.8,4.74,1.63,7.11,2.45l13.12,2.95,3.07,1,.62.23A10.83,10.83,0,0,0,1948,1505q5,1.42,10,2.79v-76.9l-83-42.9c-.63-.87-1.07-2.08-1.94-2.61a1359.12,1359.12,0,0,1-140.31-96.94c-4.64-3.68-8.86-10.31-16.74-8.31.3-5.87-4-8.72-7.82-11.86-17.14-14.21-34.59-27.85-50.67-43.48-37.16-36.09-75.9-70.54-112.83-106.93-25.71-25.33-56-43.57-91.5-52.59-44.5-11.3-89.92-12.76-135.34-12-72.93,1.16-145.62,9.25-218.66,8.24-54-.75-101.42-17.75-138.69-57.94-17.47-18.84-33.35-39.16-49.94-58.8-1.76-3.36-3.11-7-5.35-10q-26.68-36.1-53.74-72c-4.52-6-7.81-13.81,1.72-14.84,25.87-2.8,49.66-13.16,74.78-18.15,39.43-7.81,56.09-40.18,80.31-70.29-29.37,0-54.65-.76-79.85.29-14.71.61-16.76-4.13-12.6-17.08,2.52-7.82,6.76-16.22,3.19-26.37-42,17.87-78.6,41.91-106,77.56"/></clipPath><linearGradient id="d" x1="826.79" y1="-534.25" x2="827.79" y2="-534.25" gradientTransform="matrix(0, 1203.37, 1203.37, 0, 644119.18, -994132.99)" gradientUnits="userSpaceOnUse"><stop offset="0" stop-color="gold"/><stop offset="0.54" stop-color="#ffb604"/><stop offset="0.92" stop-color="#ffa406"/><stop offset="1" stop-color="#ffa406"/></linearGradient></defs><title>roo1</title><g class="b"><g class="c"><path class="d" d="M1329.28,1529.92l2.48.22-2.48-.22m13.27,0,2.47.22-2.47-.22m583.61,0,2.5.22h0l-2.48-.22m13.27,0,2.49.22h0l-2.48-.22M818.18,987a4.46,4.46,0,0,1-.4.63,4.46,4.46,0,0,0,.4-.63m.72-134.09c-11.12,14.47-23.45,19.51-40.75,19.14-32.64-.73-63.14,6.86-90,26.54-16.89,12.34-34.1,24.25-51.36,36-11.77,8.05-23.61,15.27-38.48,17.7C557.05,959,516.05,967.08,475,974.59v10c11,14.35,13.68,33.35,26.18,46.87,10.64,29.75,18.89,35.49,47.45,32.7,53.11-5.17,106.3-4.49,159.5-3.8,20,.26,40,.52,60,.46,8.26,0,13.54,4,17.21,10.73,22.26,41,43.85,82.45,66.84,123.06,21.14,37.36,36.19,78.73,87.89,89.76,25.29,5.4,55.71,18.29,56.11,55.09a3.26,3.26,0,0,0,.31,3.09c.54,2.32,1.11,4.64,1.67,7,4,18.09,6.94,36.46,12.29,54.11,3.08,10.18,3.29,23.22,12.16,29.66,13.18,9.6,26,20.63,42.28,25.26,41.88,27.84,84.72,50.85,134.85,19.69,13.46-8.36,20.85-3.13,30.5,6.26,23.52,22.91,46.4,46.88,76.64,61.53l3.86,1.85a3.43,3.43,0,0,0,2.68,1.06c.33,2.27,1.28,3.76,4,2.95l4.15,2.6,5.71,3.32q5,1.68,10,3.34a3.1,3.1,0,0,0,2.93.95h0c6.85,5.82,15.25,7.46,23.79,8.69,5.58,2.25,11.23,4.1,17.37,3.76l1,1.08,1-.91.32-.07,3.33.55c7.92,4.45,16.81,5.27,25.45,5.35,32.33.32,60.94,9.7,85.55,31.34,9,7.94,19.63,14.15,29.59,21,64.83,44.63,134.84,74.12,215.25,71.26,24.61-.86,47.93,1.57,70.43,12.54,26.33,12.86,55.93,18.08,81.07,33.9h43.11c6.78-8.12,18.25-10.11,26.48-17.78v-4.48c-35.42-3.62-69.21-8.41-102.35-17.49-47.56-13-90.8-34.55-127.71-66.95-12.76-11.2-20.92-12.62-32.48-.9-11.17,11.33-21.85,9.93-35.94,1.73-37.59-21.89-70.41-48.68-97.22-82.87l-5-5.22c-.42-6.06-.82-12.14-1.23-18.2-3.33-26.62-4.33-53.61-12.16-79.54,3.55-6.49.14-13-.69-19.19-1.67-12.38,1.32-13.88,12.62-9.51,31.14,12.06,62.68,23.08,94.06,34.48,36.19,12.93,72.21,26.35,108.64,38.62,41.11,13.86,81.41,30.16,123.54,41,4.36,1.19,8.7,2.41,13.07,3.61a3.15,3.15,0,0,0,2.95.95s0,0,0,0c3.63,4.55,9.41,2.85,13.95,4.74l3,.91c2.37.8,4.74,1.63,7.11,2.45l13.12,2.95,3.07,1,.62.23a10.83,10.83,0,0,0,9.13,2.91q5,1.42,10,2.79v-76.9l-83-42.9c-.63-.87-1.07-2.08-1.94-2.61a1359.38,1359.38,0,0,1-140.31-96.94c-4.64-3.68-8.86-10.31-16.74-8.31.3-5.87-4-8.72-7.82-11.86-17.14-14.21-34.59-27.85-50.67-43.48-37.16-36.09-75.9-70.54-112.83-106.93-25.71-25.33-56-43.57-91.51-52.59-44.5-11.3-89.92-12.76-135.33-12-72.93,1.16-145.62,9.25-218.66,8.24-54-.75-101.41-17.75-138.69-57.94-17.47-18.84-33.35-39.16-49.94-58.8-1.76-3.36-3.11-7-5.35-10q-26.69-36.1-53.74-72c-4.52-6-7.81-13.81,1.72-14.84,25.87-2.8,49.66-13.16,74.78-18.15,39.43-7.81-27.84,31.9-3.62,1.79-29.37,0,13.2-37-12-36-14.71.61-.69-39.93,3.47-52.88,2.52-7.82-59.88,33-63.45,22.88-42,17.87-12-7.35-39.36,28.31"/></g></g><g class="e"><rect class="f" x="375.66" y="316.02" width="1675.89" height="1775.76" transform="translate(-478.66 1445.7) rotate(-52.9)"/></g></svg>