<svg xmlns="http://www.w3.org/2000/svg" viewBox="0 0 266.77 170.67"><defs><style>.a{fill:#ffce00;}</style></defs><title>slide-3</title><path class="a" d="M9.83,93.64c0,7.13,0,13.66,0,20.18s.26,13.09-.07,19.62c-.29,5.85,2.05,8.31,7.88,8.29,23.07-.11,18.1,1.73,18.67-17.47,0-1.42,0-2.85,0-4.26.32-7.54-3.22-17.3,10-17.49.22,0,.46-.32.66-.52L76.23,72.15,49,45.76,0,91.43ZM189.34,71.8c9.75,10,19.43,19.91,29.16,29.79.76.77,1.95,1.77,2.83,1.68,9.08-1,8.36,5.21,8.26,11-.06,3.7-.07,7.39,0,11.09.33,17.85-3,16,16.39,16.43,7.71.18,10.62-2.4,10.24-10.37-.59-12.65-.16-25.34-.16-37.74l10.71-2.65L217.64,44.95ZM180.5,63c.62-3.7.08-7.56,1.71-9,10.19-9.21,4.33-18.69.93-28a8.24,8.24,0,0,0-5.17-4.5c-1.12-.25-3.32,2.55-4.42,4.35C165,39.8,170.58,51.42,180.5,63ZM68.21,125c0-4,.53-8-.22-11.85-.39-2-3-3.49-4.67-5.22-1.43,1.64-4,3.22-4.08,4.94a210.44,210.44,0,0,0,0,23.76c.1,1.69,2.76,3.24,4.24,4.85,1.56-1.53,4.17-2.87,4.48-4.62C68.66,133,68.19,129,68.21,125Zm138.58.23h0c0-4.25.44-8.56-.21-12.71-.27-1.72-2.87-3.07-4.41-4.6-1.51,1.57-4.23,3.07-4.31,4.71a240.27,240.27,0,0,0,0,24.61c.07,1.47,2.9,4.16,3.94,3.93,1.86-.41,4.42-2.41,4.73-4.1C207.28,133.27,206.79,129.21,206.79,125.25Z"/><path class="a" d="M82.59,170.67c-1.52-4-4.22-7.95-4.35-12-.51-15.61-.2-31.26-.21-46.89,0-11.4,0-11.4-11.61-11.57-1.64,0-3.28-.14-6.49-.29L134.08,30,205.7,97.66c-1.31,1.58-1.61,2.29-2,2.31-15.84,1.16-15.84,1.15-15.84,17,0,14.21.31,28.43-.21,42.62-.14,3.73-2.86,7.36-4.4,11H149.16V114.32H118.44v56.35Z"/><path class="a" d="M79.18,0c9,9.63,13.76,21.83,12.62,34.16C90.76,45.3,84.8,56,81,66.88l-2.71.73c-1.82-4.25-3.69-8.47-5.43-12.75-.72-1.77-.56-4.47-1.8-5.37-9.59-7-8.29-16.46-5.19-25.43C68.77,15.71,73.54,8,77.47,0Z"/><path class="a" d="M9.83,93.64,0,91.43,49,45.76,76.23,72.15,47,102c-.2.2-.43.52-.66.52-13.21.19-9.67,10-10,17.49-.06,1.42,0,2.84,0,4.26-.57,19.19,4.39,17.36-18.67,17.47-5.83,0-8.17-2.44-7.88-8.29.33-6.52.07-13.08.07-19.62S9.83,100.77,9.83,93.64Z"/><path class="a" d="M189.34,71.8l28.3-26.86,49.13,46.11-10.71,2.65c0,12.4-.43,25.1.16,37.74.37,8-2.53,10.55-10.24,10.37-19.36-.46-16.05,1.43-16.39-16.43-.07-3.7-.06-7.39,0-11.09.1-5.82.82-12-8.26-11-.88.09-2.07-.91-2.83-1.68C208.76,91.71,199.08,81.78,189.34,71.8Z"/><path class="a" d="M180.5,63c-9.92-11.59-15.52-23.21-7-37.2,1.1-1.8,3.3-4.6,4.42-4.35a8.24,8.24,0,0,1,5.17,4.5c3.4,9.33,9.26,18.82-.93,28C180.59,55.44,181.13,59.31,180.5,63Z"/><path class="a" d="M68.2,125c0,4,.46,8-.23,11.85-.31,1.75-2.92,3.09-4.48,4.62-1.48-1.61-4.14-3.16-4.24-4.85a210.44,210.44,0,0,1,0-23.76c.09-1.72,2.66-3.29,4.08-4.94,1.63,1.73,4.29,3.25,4.67,5.22C68.74,117,68.21,121.05,68.2,125Z"/><path class="a" d="M206.79,125.25c0,4,.48,8-.22,11.85-.31,1.69-2.87,3.69-4.73,4.1-1,.23-3.87-2.46-3.94-3.93a240.27,240.27,0,0,1,0-24.61c.09-1.64,2.81-3.14,4.31-4.71,1.54,1.52,4.14,2.87,4.41,4.6.65,4.14.21,8.46.21,12.71Z"/></svg>