<svg xmlns="http://www.w3.org/2000/svg" viewBox="0 0 199.8 226.68"><defs><style>.a{fill:#ffce00;}</style></defs><title>slide-2</title><path class="a" d="M103.72,0A53.74,53.74,0,0,0,49,52.72a53.74,53.74,0,0,0,54.72,52.71,53.74,53.74,0,0,0,54.77-52.69v0A53.74,53.74,0,0,0,103.74,0h0m0,100.56A48.71,48.71,0,0,1,53.88,53q0-.15,0-.29A48.71,48.71,0,0,1,103.43,4.88h.29a48.71,48.71,0,0,1,49.84,47.55q0,.15,0,.29A48.71,48.71,0,0,1,104,100.57h-.29"/><path class="a" d="M102.37,78.59V73.18a18.83,18.83,0,0,1-6.28-1.73,10.82,10.82,0,0,1-4.17-4,14.45,14.45,0,0,1-2.06-6.77l5.41-1a13.15,13.15,0,0,0,2.11,6.12,7.52,7.52,0,0,0,5.41,3V52.62a21.65,21.65,0,0,1-6.49-2.44,9.42,9.42,0,0,1-3.79-3.79A11.26,11.26,0,0,1,91.22,41a11.26,11.26,0,0,1,3.9-8.88,13.64,13.64,0,0,1,7.74-2.81V27.07h3v2.49A12.61,12.61,0,0,1,113,32.21,11.69,11.69,0,0,1,117,39.9l-5.41.81a8.82,8.82,0,0,0-1.89-4.65,7,7,0,0,0-4-2.11V48.72a40,40,0,0,1,5.14,1.52,12.88,12.88,0,0,1,3.9,2.54,10.39,10.39,0,0,1,2.33,3.63,12.8,12.8,0,0,1-11.09,17.26h-.28v5.41h-3.41m0-45A7.52,7.52,0,0,0,97.72,36a7.14,7.14,0,0,0,0,9,10.17,10.17,0,0,0,5,2.81Zm3,35.56a7.63,7.63,0,0,0,5-2.6,8.06,8.06,0,0,0,1.95-5.41,6.93,6.93,0,0,0-1.41-4.49,12,12,0,0,0-5.41-3Z"/><path class="a" d="M71,226.67H68A10.67,10.67,0,0,1,57,216.41q0-.08,0-.15a62.28,62.28,0,0,1-.09-7.1,3.06,3.06,0,0,0-2-3.34,79.91,79.91,0,0,1-26.25-20.31,64.28,64.28,0,0,1-13-23.84,2.33,2.33,0,0,0-2.61-2h-.09C4,159.67,0,155.56,0,146.58a43.71,43.71,0,0,1,.44-8.31c1.16-5.82,5.4-9,11.34-9a6.58,6.58,0,0,0,2.07,0c.64-.23,1.49-.73,1.67-1.3A71,71,0,0,1,29.69,102.5a3.3,3.3,0,0,0,.78-2.21c-.67-6.36-1.36-12.73-2.22-19.07-.71-5.17.08-6.15,5.19-5.16,6.41,1.24,12.64,3,17.23,8.13.94,1.05,1.71.46,2.56,0a95.39,95.39,0,0,1,26-9.39,103.5,103.5,0,0,1,43.74.4c16.81,3.76,31.72,11.2,44,23.37,9.68,9.57,16.37,20.88,19,34.38.44,2.24.71,4.51,1,6.7a43.41,43.41,0,0,1,6,0,8.51,8.51,0,0,1,6.76,9.45c-.35,1.94-1.17,3.39-3.35,3.71A5,5,0,0,1,191,150l2.54.73c2.54.75,4.15.2,4.93-1.69a4.85,4.85,0,0,0-2.22-5.54c-2-1-7.21-.5-8.75,1.09a3.68,3.68,0,0,0-.66,2.3,56.87,56.87,0,0,1-4,19.54c-5.44,13.77-14.61,24.57-26.68,33a123.11,123.11,0,0,1-11.31,6.69,2.7,2.7,0,0,0-1.61,2.76,51.39,51.39,0,0,1-.52,9.55c-1.13,5.38-5.19,8.28-10.72,8.28h-2.5c-6.53,0-10.78-3.82-11.57-10.41a8.76,8.76,0,0,0-.3-1.43,111.38,111.38,0,0,1-35.1,0M101.74,78.12l-.05.55a41.23,41.23,0,0,0-5.42,0c-4.23.6-8.52,1.27-12.73,2.13a8.64,8.64,0,0,0-3.55,2c-.49.42-.45,1.46-.65,2.22a8.11,8.11,0,0,0,2,.39c2-.14,4-.63,6-.58,7.14.15,14.28.53,21.43.7a79.62,79.62,0,0,0,10-.3c2-.21,2.42-2,.79-3.22A11,11,0,0,0,115.08,80C110.69,79.18,106.2,78.67,101.74,78.12ZM34.47,124.3c2.62.11,4.77-2.25,4.91-5.38.12-2.74-2.16-5.39-4.67-5.42s-4.6,2.17-4.77,5.08S31.87,124.19,34.47,124.3Z"/></svg>