<svg xmlns="http://www.w3.org/2000/svg" viewBox="0 0 245.49 153.7"><defs><style>.a{fill:#ffce00;}</style></defs><title>slide-1</title><circle class="a" cx="57.94" cy="41.41" r="41.34"/><path class="a" d="M57.94,85.68C26.36,85.68.66,116,0,153.7H115.88C115.23,116,89.49,85.68,57.94,85.68Z"/><path class="a" d="M174.45,85.68c-31.58,0-57.29,30.27-57.94,68H232.39C231.76,116,206,85.68,174.45,85.68Z"/><path class="a" d="M212.54,25.48a41.26,41.26,0,0,0-76.24,0,56,56,0,0,1-33.54,20.81,33.62,33.62,0,0,0,36.46,16.92,40.82,40.82,0,0,0,69.65,0,33.62,33.62,0,0,0,36.62-16.92A56.42,56.42,0,0,1,212.54,25.48Z"/></svg>